<svg width="361" height="63" viewBox="0 0 361 63" fill="none" xmlns="http://www.w3.org/2000/svg">
<g filter="url(#filter0_d_202_2)">
<path d="M2.60532 53C1.98132 53 1.42932 52.856 0.949324 52.568C0.469325 52.232 0.229325 51.752 0.229325 51.128V2.672C0.229325 1.808 0.469325 1.208 0.949324 0.871997C1.42932 0.535999 1.98132 0.368 2.60532 0.368C3.18132 0.368 3.68532 0.535999 4.11732 0.871997C4.59732 1.16 5.02932 1.568 5.41332 2.096C5.79732 2.576 6.13332 3.128 6.42132 3.752L18.8053 27.584L31.1173 3.752C31.5013 3.128 31.8613 2.576 32.1973 2.096C32.5813 1.568 33.0133 1.16 33.4933 0.871997C33.9733 0.535999 34.4773 0.368 35.0053 0.368C35.6773 0.368 36.2293 0.535999 36.6613 0.871997C37.1413 1.208 37.3813 1.808 37.3813 2.672V51.128C37.3813 51.752 37.1413 52.232 36.6613 52.568C36.1813 52.856 35.6293 53 35.0053 53C34.4293 53 33.8773 52.856 33.3493 52.568C32.8693 52.232 32.6293 51.752 32.6293 51.128V10.664L20.6773 33.272C20.3893 33.848 20.0773 34.256 19.7413 34.496C19.4053 34.736 19.0693 34.856 18.7333 34.856C18.4453 34.856 18.1333 34.736 17.7973 34.496C17.4613 34.256 17.1253 33.848 16.7893 33.272L4.98132 10.52V51.128C4.98132 51.752 4.71732 52.232 4.18933 52.568C3.70932 52.856 3.18132 53 2.60532 53ZM60.2098 53.504C57.1858 53.504 54.4978 52.928 52.1458 51.776C49.8418 50.624 48.0178 49.04 46.6738 47.024C45.3778 44.96 44.7298 42.56 44.7298 39.824V31.832C44.7298 29.432 45.3538 27.224 46.6018 25.208C47.8498 23.144 49.5058 21.512 51.5698 20.312C53.6818 19.112 55.9858 18.512 58.4818 18.512C60.8818 18.512 63.0898 19.088 65.1058 20.24C67.1698 21.344 68.8258 22.88 70.0738 24.848C71.3218 26.816 71.9458 29.096 71.9458 31.688C71.9458 33.512 71.6338 34.832 71.0098 35.648C70.3858 36.464 69.5938 36.968 68.6338 37.16C67.7218 37.304 66.7378 37.376 65.6818 37.376H49.4098V40.04C49.4098 42.92 50.4418 45.2 52.5058 46.88C54.5698 48.56 57.1858 49.4 60.3538 49.4C62.2738 49.4 63.7618 49.16 64.8178 48.68C65.8738 48.2 66.6898 47.72 67.2658 47.24C67.8898 46.76 68.4658 46.52 68.9938 46.52C69.3778 46.52 69.7138 46.664 70.0018 46.952C70.3378 47.192 70.5778 47.48 70.7218 47.816C70.9138 48.152 71.0098 48.464 71.0098 48.752C71.0098 49.28 70.5778 49.928 69.7138 50.696C68.8498 51.464 67.6018 52.136 65.9698 52.712C64.3378 53.24 62.4178 53.504 60.2098 53.504ZM49.4098 33.92H63.8098C65.2498 33.92 66.2098 33.776 66.6898 33.488C67.1698 33.152 67.4098 32.48 67.4098 31.472C67.4098 29.936 67.0258 28.496 66.2578 27.152C65.4898 25.76 64.4338 24.632 63.0898 23.768C61.7458 22.856 60.1858 22.4 58.4098 22.4C56.7778 22.4 55.2658 22.808 53.8738 23.624C52.5298 24.44 51.4498 25.496 50.6338 26.792C49.8178 28.088 49.4098 29.552 49.4098 31.184V33.92ZM91.3144 53.504C88.7704 53.504 86.4424 52.88 84.3304 51.632C82.2664 50.384 80.6104 48.728 79.3624 46.664C78.1624 44.552 77.5624 42.32 77.5624 39.968V20.816C77.5624 20.336 77.8024 19.904 78.2824 19.52C78.7624 19.136 79.3144 18.944 79.9384 18.944C80.5624 18.944 81.0904 19.136 81.5224 19.52C82.0024 19.904 82.2424 20.336 82.2424 20.816V39.968C82.2424 41.552 82.6504 43.04 83.4664 44.432C84.2824 45.824 85.3624 46.976 86.7064 47.888C88.0504 48.752 89.5624 49.184 91.2424 49.184C92.9704 49.184 94.5064 48.752 95.8504 47.888C97.1944 47.024 98.2504 45.896 99.0184 44.504C99.8344 43.064 100.242 41.552 100.242 39.968V20.744C100.242 20.216 100.482 19.784 100.962 19.448C101.442 19.112 101.994 18.944 102.618 18.944C103.338 18.944 103.89 19.112 104.274 19.448C104.706 19.784 104.922 20.216 104.922 20.744V39.968C104.922 42.416 104.298 44.672 103.05 46.736C101.85 48.752 100.194 50.384 98.0824 51.632C96.0184 52.88 93.7624 53.504 91.3144 53.504ZM121.777 53.504C119.521 53.504 117.529 53.216 115.801 52.64C114.121 52.064 112.801 51.392 111.841 50.624C110.929 49.808 110.473 49.04 110.473 48.32C110.473 47.984 110.545 47.672 110.689 47.384C110.833 47.048 111.025 46.76 111.265 46.52C111.553 46.28 111.841 46.16 112.129 46.16C112.657 46.16 113.233 46.448 113.857 47.024C114.529 47.552 115.441 48.104 116.593 48.68C117.793 49.256 119.473 49.544 121.633 49.544C124.369 49.544 126.289 49.04 127.393 48.032C128.497 46.976 129.049 45.776 129.049 44.432C129.049 42.848 128.617 41.624 127.753 40.76C126.937 39.848 125.833 39.152 124.441 38.672C123.097 38.192 121.657 37.736 120.121 37.304C118.633 36.872 117.193 36.344 115.801 35.72C114.457 35.096 113.353 34.208 112.489 33.056C111.673 31.856 111.265 30.272 111.265 28.304C111.265 26.768 111.649 25.256 112.417 23.768C113.185 22.28 114.385 21.032 116.017 20.024C117.697 19.016 119.905 18.512 122.641 18.512C124.225 18.512 125.761 18.68 127.249 19.016C128.737 19.352 129.937 19.808 130.849 20.384C131.809 20.912 132.289 21.488 132.289 22.112C132.289 22.304 132.193 22.616 132.001 23.048C131.857 23.432 131.641 23.768 131.353 24.056C131.065 24.344 130.729 24.488 130.345 24.488C129.961 24.488 129.433 24.32 128.761 23.984C128.137 23.648 127.321 23.312 126.313 22.976C125.305 22.64 124.105 22.472 122.713 22.472C120.985 22.472 119.593 22.784 118.537 23.408C117.481 24.032 116.713 24.776 116.233 25.64C115.753 26.504 115.513 27.344 115.513 28.16C115.513 29.504 115.945 30.536 116.809 31.256C117.673 31.976 118.777 32.576 120.121 33.056C121.513 33.488 122.953 33.92 124.441 34.352C125.977 34.736 127.417 35.288 128.761 36.008C130.153 36.728 131.257 37.736 132.073 39.032C132.937 40.328 133.369 42.056 133.369 44.216C133.369 47.048 132.361 49.304 130.345 50.984C128.329 52.664 125.473 53.504 121.777 53.504ZM155.755 53C155.227 53 154.723 52.856 154.243 52.568C153.811 52.232 153.595 51.752 153.595 51.128V2.24C153.595 1.616 153.811 1.16 154.243 0.871997C154.723 0.535999 155.227 0.368 155.755 0.368H181.387C182.011 0.368 182.467 0.607999 182.755 1.088C183.043 1.52 183.187 2 183.187 2.528C183.187 3.104 183.019 3.632 182.683 4.112C182.395 4.544 181.963 4.76 181.387 4.76H158.347V24.56H169.651C170.227 24.56 170.659 24.776 170.947 25.208C171.283 25.64 171.451 26.144 171.451 26.72C171.451 27.2 171.307 27.656 171.019 28.088C170.731 28.52 170.275 28.736 169.651 28.736H158.347V48.608H181.387C181.963 48.608 182.395 48.824 182.683 49.256C183.019 49.688 183.187 50.216 183.187 50.84C183.187 51.368 183.043 51.872 182.755 52.352C182.467 52.784 182.011 53 181.387 53H155.755ZM197.357 53.504C195.101 53.504 193.109 53.216 191.381 52.64C189.701 52.064 188.381 51.392 187.421 50.624C186.509 49.808 186.053 49.04 186.053 48.32C186.053 47.984 186.125 47.672 186.269 47.384C186.413 47.048 186.605 46.76 186.845 46.52C187.133 46.28 187.421 46.16 187.709 46.16C188.237 46.16 188.813 46.448 189.437 47.024C190.109 47.552 191.021 48.104 192.173 48.68C193.373 49.256 195.053 49.544 197.213 49.544C199.949 49.544 201.869 49.04 202.973 48.032C204.077 46.976 204.629 45.776 204.629 44.432C204.629 42.848 204.197 41.624 203.333 40.76C202.517 39.848 201.413 39.152 200.021 38.672C198.677 38.192 197.237 37.736 195.701 37.304C194.213 36.872 192.773 36.344 191.381 35.72C190.037 35.096 188.933 34.208 188.069 33.056C187.253 31.856 186.845 30.272 186.845 28.304C186.845 26.768 187.229 25.256 187.997 23.768C188.765 22.28 189.965 21.032 191.597 20.024C193.277 19.016 195.485 18.512 198.221 18.512C199.805 18.512 201.341 18.68 202.829 19.016C204.317 19.352 205.517 19.808 206.429 20.384C207.389 20.912 207.869 21.488 207.869 22.112C207.869 22.304 207.773 22.616 207.581 23.048C207.437 23.432 207.221 23.768 206.933 24.056C206.645 24.344 206.309 24.488 205.925 24.488C205.541 24.488 205.013 24.32 204.341 23.984C203.717 23.648 202.901 23.312 201.893 22.976C200.885 22.64 199.685 22.472 198.293 22.472C196.565 22.472 195.173 22.784 194.117 23.408C193.061 24.032 192.293 24.776 191.813 25.64C191.333 26.504 191.093 27.344 191.093 28.16C191.093 29.504 191.525 30.536 192.389 31.256C193.253 31.976 194.357 32.576 195.701 33.056C197.093 33.488 198.533 33.92 200.021 34.352C201.557 34.736 202.997 35.288 204.341 36.008C205.733 36.728 206.837 37.736 207.653 39.032C208.517 40.328 208.949 42.056 208.949 44.216C208.949 47.048 207.941 49.304 205.925 50.984C203.909 52.664 201.053 53.504 197.357 53.504ZM227.649 53.504C224.481 53.504 221.865 52.904 219.801 51.704C217.737 50.504 216.201 48.872 215.193 46.808C214.185 44.744 213.681 42.416 213.681 39.824V32.192C213.681 29.6 214.161 27.272 215.121 25.208C216.129 23.144 217.665 21.512 219.729 20.312C221.841 19.112 224.481 18.512 227.649 18.512C229.665 18.512 231.417 18.776 232.905 19.304C234.441 19.784 235.617 20.384 236.433 21.104C237.297 21.824 237.729 22.52 237.729 23.192C237.729 23.528 237.633 23.888 237.441 24.272C237.297 24.608 237.057 24.896 236.721 25.136C236.433 25.376 236.097 25.496 235.713 25.496C235.281 25.496 234.777 25.28 234.201 24.848C233.673 24.368 232.929 23.912 231.969 23.48C231.009 23.048 229.641 22.832 227.865 22.832C224.745 22.832 222.369 23.672 220.737 25.352C219.153 26.984 218.361 29.264 218.361 32.192V39.824C218.361 42.752 219.153 45.056 220.737 46.736C222.369 48.368 224.769 49.184 227.937 49.184C229.761 49.184 231.177 48.968 232.185 48.536C233.193 48.056 233.961 47.6 234.489 47.168C235.065 46.688 235.593 46.448 236.073 46.448C236.505 46.448 236.865 46.568 237.153 46.808C237.489 47.048 237.729 47.336 237.873 47.672C238.065 48.008 238.161 48.368 238.161 48.752C238.161 49.376 237.729 50.072 236.865 50.84C236.001 51.56 234.777 52.184 233.193 52.712C231.657 53.24 229.809 53.504 227.649 53.504ZM245.729 53C245.105 53 244.553 52.808 244.073 52.424C243.641 52.04 243.425 51.608 243.425 51.128V20.744C243.425 20.168 243.641 19.736 244.073 19.448C244.553 19.112 245.105 18.944 245.729 18.944C246.353 18.944 246.881 19.112 247.313 19.448C247.745 19.736 247.961 20.168 247.961 20.744V24.272C248.489 23.264 249.209 22.328 250.121 21.464C251.033 20.6 252.113 19.904 253.361 19.376C254.609 18.8 256.025 18.512 257.609 18.512H260.129C260.657 18.512 261.089 18.728 261.425 19.16C261.809 19.592 262.001 20.096 262.001 20.672C262.001 21.296 261.809 21.824 261.425 22.256C261.089 22.64 260.657 22.832 260.129 22.832H257.609C256.025 22.832 254.489 23.264 253.001 24.128C251.561 24.992 250.385 26.192 249.473 27.728C248.561 29.264 248.105 31.136 248.105 33.344V51.128C248.105 51.608 247.865 52.04 247.385 52.424C246.953 52.808 246.401 53 245.729 53ZM268.487 8.864C267.623 8.864 266.855 8.576 266.183 8C265.559 7.376 265.247 6.656 265.247 5.84C265.247 5.024 265.559 4.328 266.183 3.752C266.855 3.176 267.623 2.888 268.487 2.888C269.351 2.888 270.095 3.176 270.719 3.752C271.343 4.328 271.655 5.024 271.655 5.84C271.655 6.656 271.343 7.376 270.719 8C270.095 8.576 269.351 8.864 268.487 8.864ZM268.415 53C267.791 53 267.239 52.808 266.759 52.424C266.327 52.04 266.111 51.608 266.111 51.128V20.744C266.111 20.168 266.327 19.736 266.759 19.448C267.239 19.112 267.791 18.944 268.415 18.944C269.087 18.944 269.639 19.112 270.071 19.448C270.551 19.736 270.791 20.168 270.791 20.744V51.128C270.791 51.608 270.551 52.04 270.071 52.424C269.639 52.808 269.087 53 268.415 53ZM289.975 53C286.279 53 283.447 52.16 281.479 50.48C279.511 48.8 278.527 46.112 278.527 42.416V4.544C278.527 3.968 278.767 3.536 279.247 3.248C279.775 2.912 280.303 2.744 280.831 2.744C281.455 2.744 282.007 2.912 282.487 3.248C282.967 3.536 283.207 3.968 283.207 4.544V18.944H292.567C293.047 18.944 293.431 19.136 293.719 19.52C294.007 19.904 294.151 20.36 294.151 20.888C294.151 21.416 294.007 21.872 293.719 22.256C293.431 22.64 293.047 22.832 292.567 22.832H283.207V42.416C283.207 44.768 283.711 46.424 284.719 47.384C285.727 48.296 287.479 48.752 289.975 48.752H291.991C292.663 48.752 293.167 48.968 293.503 49.4C293.887 49.784 294.079 50.264 294.079 50.84C294.079 51.416 293.887 51.92 293.503 52.352C293.167 52.784 292.663 53 291.991 53H289.975ZM310.577 53.504C308.129 53.504 305.873 52.88 303.809 51.632C301.745 50.336 300.065 48.656 298.769 46.592C297.521 44.48 296.897 42.224 296.897 39.824V32.048C296.897 29.6 297.497 27.368 298.697 25.352C299.945 23.288 301.601 21.632 303.665 20.384C305.777 19.136 308.081 18.512 310.577 18.512C313.025 18.512 315.281 19.136 317.345 20.384C319.457 21.584 321.137 23.192 322.385 25.208C323.633 27.224 324.257 29.504 324.257 32.048V39.824C324.257 42.176 323.633 44.408 322.385 46.52C321.137 48.632 319.457 50.336 317.345 51.632C315.281 52.88 313.025 53.504 310.577 53.504ZM310.577 49.184C312.257 49.184 313.769 48.752 315.113 47.888C316.457 46.976 317.537 45.8 318.353 44.36C319.169 42.92 319.577 41.408 319.577 39.824V32.048C319.577 30.464 319.169 28.976 318.353 27.584C317.585 26.192 316.505 25.064 315.113 24.2C313.769 23.288 312.257 22.832 310.577 22.832C308.897 22.832 307.385 23.288 306.041 24.2C304.697 25.064 303.617 26.192 302.801 27.584C301.985 28.976 301.577 30.464 301.577 32.048V39.824C301.577 41.408 301.985 42.92 302.801 44.36C303.617 45.8 304.697 46.976 306.041 47.888C307.433 48.752 308.945 49.184 310.577 49.184ZM340.151 53.504C337.895 53.504 335.903 53.216 334.175 52.64C332.495 52.064 331.175 51.392 330.215 50.624C329.303 49.808 328.847 49.04 328.847 48.32C328.847 47.984 328.919 47.672 329.063 47.384C329.207 47.048 329.399 46.76 329.639 46.52C329.927 46.28 330.215 46.16 330.503 46.16C331.031 46.16 331.607 46.448 332.231 47.024C332.903 47.552 333.815 48.104 334.967 48.68C336.167 49.256 337.847 49.544 340.007 49.544C342.743 49.544 344.663 49.04 345.767 48.032C346.871 46.976 347.423 45.776 347.423 44.432C347.423 42.848 346.991 41.624 346.127 40.76C345.311 39.848 344.207 39.152 342.815 38.672C341.471 38.192 340.031 37.736 338.495 37.304C337.007 36.872 335.567 36.344 334.175 35.72C332.831 35.096 331.727 34.208 330.863 33.056C330.047 31.856 329.639 30.272 329.639 28.304C329.639 26.768 330.023 25.256 330.791 23.768C331.559 22.28 332.759 21.032 334.391 20.024C336.071 19.016 338.279 18.512 341.015 18.512C342.599 18.512 344.135 18.68 345.623 19.016C347.111 19.352 348.311 19.808 349.223 20.384C350.183 20.912 350.663 21.488 350.663 22.112C350.663 22.304 350.567 22.616 350.375 23.048C350.231 23.432 350.015 23.768 349.727 24.056C349.439 24.344 349.103 24.488 348.719 24.488C348.335 24.488 347.807 24.32 347.135 23.984C346.511 23.648 345.695 23.312 344.687 22.976C343.679 22.64 342.479 22.472 341.087 22.472C339.359 22.472 337.967 22.784 336.911 23.408C335.855 24.032 335.087 24.776 334.607 25.64C334.127 26.504 333.887 27.344 333.887 28.16C333.887 29.504 334.319 30.536 335.183 31.256C336.047 31.976 337.151 32.576 338.495 33.056C339.887 33.488 341.327 33.92 342.815 34.352C344.351 34.736 345.791 35.288 347.135 36.008C348.527 36.728 349.631 37.736 350.447 39.032C351.311 40.328 351.743 42.056 351.743 44.216C351.743 47.048 350.735 49.304 348.719 50.984C346.703 52.664 343.847 53.504 340.151 53.504Z" fill="#E2E7EF"/>
<path d="M0.949324 52.568L0.375862 53.3872L0.404673 53.4074L0.434829 53.4255L0.949324 52.568ZM0.949324 0.871997L0.375864 0.0527643L0.37586 0.0527666L0.949324 0.871997ZM4.11732 0.871997L3.50339 1.66135L3.55105 1.69842L3.60283 1.72949L4.11732 0.871997ZM5.41332 2.096L4.60459 2.68417L4.6181 2.70275L4.63246 2.72069L5.41332 2.096ZM6.42132 3.752L5.51336 4.17106L5.52318 4.19232L5.53398 4.2131L6.42132 3.752ZM18.8053 27.584L17.918 28.0451L18.8079 29.7577L19.6938 28.043L18.8053 27.584ZM31.1173 3.752L30.2657 3.2279L30.2461 3.25977L30.2289 3.29301L31.1173 3.752ZM32.1973 2.096L31.3886 1.50783L31.3833 1.51514L31.3781 1.52253L32.1973 2.096ZM33.4933 0.871997L34.0078 1.72949L34.038 1.7114L34.0668 1.69123L33.4933 0.871997ZM36.6613 0.871997L36.0474 1.66135L36.0672 1.6768L36.0879 1.69123L36.6613 0.871997ZM36.6613 52.568L37.1758 53.4255L37.206 53.4074L37.2348 53.3872L36.6613 52.568ZM33.3493 52.568L32.7759 53.3872L32.8215 53.4192L32.8705 53.4459L33.3493 52.568ZM32.6293 10.664H33.6293L31.7453 10.1966L32.6293 10.664ZM20.6773 33.272L19.7933 32.8046L19.788 32.8146L19.7829 32.8248L20.6773 33.272ZM19.7413 34.496L20.3226 35.3097L20.3226 35.3097L19.7413 34.496ZM17.7973 34.496L17.2161 35.3097L17.2161 35.3097L17.7973 34.496ZM16.7893 33.272L15.9017 33.7326L15.9131 33.7546L15.9255 33.7759L16.7893 33.272ZM4.98132 10.52L5.86891 10.0594L3.98132 10.52H4.98132ZM4.18933 52.568L4.70382 53.4255L4.7151 53.4187L4.7262 53.4117L4.18933 52.568ZM2.60532 52C2.14121 52 1.77106 51.8949 1.46382 51.7105L0.434829 53.4255C1.08759 53.8171 1.82143 54 2.60532 54V52ZM1.52279 51.7488C1.32998 51.6138 1.22932 51.4507 1.22932 51.128H-0.770675C-0.770675 52.0533 -0.391327 52.8502 0.375862 53.3872L1.52279 51.7488ZM1.22932 51.128V2.672H-0.770675V51.128H1.22932ZM1.22932 2.672C1.22932 1.97066 1.42077 1.76264 1.52279 1.69123L0.37586 0.0527666C-0.482125 0.653359 -0.770675 1.64534 -0.770675 2.672H1.22932ZM1.52279 1.69123C1.82352 1.48072 2.17241 1.368 2.60532 1.368V-0.632C1.79024 -0.632 1.03513 -0.408721 0.375864 0.0527643L1.52279 1.69123ZM2.60532 1.368C2.97147 1.368 3.25655 1.46937 3.50339 1.66135L4.73126 0.0826437C4.1141 -0.397373 3.39118 -0.632 2.60532 -0.632V1.368ZM3.60283 1.72949C3.95013 1.93787 4.2866 2.24694 4.60459 2.68417L6.22206 1.50783C5.77205 0.889057 5.24452 0.382125 4.63182 0.014504L3.60283 1.72949ZM4.63246 2.72069C4.9604 3.13062 5.25533 3.61198 5.51336 4.17106L7.32928 3.33294C7.01132 2.64401 6.63425 2.02138 6.19419 1.4713L4.63246 2.72069ZM5.53398 4.2131L17.918 28.0451L19.6927 27.1229L7.30867 3.2909L5.53398 4.2131ZM19.6938 28.043L32.0058 4.21098L30.2289 3.29301L17.9169 27.125L19.6938 28.043ZM31.969 4.2761C32.3451 3.66492 32.6942 3.12994 33.0166 2.66946L31.3781 1.52253C31.0284 2.02206 30.6576 2.59107 30.2657 3.2279L31.969 4.2761ZM33.0061 2.68417C33.324 2.24694 33.6605 1.93787 34.0078 1.72949L32.9788 0.0145026C32.3661 0.382123 31.8386 0.889057 31.3886 1.50783L33.0061 2.68417ZM34.0668 1.69123C34.398 1.45941 34.7048 1.368 35.0053 1.368V-0.632C34.2498 -0.632 33.5487 -0.387413 32.9199 0.0527645L34.0668 1.69123ZM35.0053 1.368C35.5069 1.368 35.828 1.49068 36.0474 1.66135L37.2753 0.0826437C36.6307 -0.418681 35.8477 -0.632 35.0053 -0.632V1.368ZM36.0879 1.69123C36.1899 1.76264 36.3813 1.97066 36.3813 2.672H38.3813C38.3813 1.64534 38.0928 0.653359 37.2348 0.0527668L36.0879 1.69123ZM36.3813 2.672V51.128H38.3813V2.672H36.3813ZM36.3813 51.128C36.3813 51.4507 36.2807 51.6138 36.0879 51.7488L37.2348 53.3872C38.002 52.8502 38.3813 52.0533 38.3813 51.128H36.3813ZM36.1468 51.7105C35.8396 51.8949 35.4694 52 35.0053 52V54C35.7892 54 36.5231 53.8171 37.1758 53.4255L36.1468 51.7105ZM35.0053 52C34.6041 52 34.216 51.9017 33.8282 51.6901L32.8705 53.4459C33.5386 53.8103 34.2545 54 35.0053 54V52ZM33.9228 51.7488C33.73 51.6138 33.6293 51.4507 33.6293 51.128H31.6293C31.6293 52.0533 32.0087 52.8502 32.7759 53.3872L33.9228 51.7488ZM33.6293 51.128V10.664H31.6293V51.128H33.6293ZM31.7453 10.1966L19.7933 32.8046L21.5614 33.7394L33.5134 11.1314L31.7453 10.1966ZM19.7829 32.8248C19.5309 33.3288 19.3094 33.5756 19.1601 33.6823L20.3226 35.3097C20.8453 34.9364 21.2478 34.3672 21.5718 33.7192L19.7829 32.8248ZM19.1601 33.6823C18.9543 33.8293 18.8172 33.856 18.7333 33.856V35.856C19.3214 35.856 19.8564 35.6427 20.3226 35.3097L19.1601 33.6823ZM18.7333 33.856C18.7265 33.856 18.6157 33.8517 18.3786 33.6823L17.2161 35.3097C17.6509 35.6203 18.1642 35.856 18.7333 35.856V33.856ZM18.3786 33.6823C18.2069 33.5597 17.9566 33.2883 17.6531 32.7681L15.9255 33.7759C16.2941 34.4077 16.7157 34.9523 17.2161 35.3097L18.3786 33.6823ZM17.6769 32.8114L5.86891 10.0594L4.09374 10.9806L15.9017 33.7326L17.6769 32.8114ZM3.98132 10.52V51.128H5.98132V10.52H3.98132ZM3.98132 51.128C3.98132 51.4089 3.89304 51.5712 3.65245 51.7243L4.7262 53.4117C5.54161 52.8928 5.98132 52.0951 5.98132 51.128H3.98132ZM3.67483 51.7105C3.35491 51.9025 3.0056 52 2.60532 52V54C3.35705 54 4.06374 53.8095 4.70382 53.4255L3.67483 51.7105ZM52.1458 51.776L51.6986 52.6705L51.7059 52.6741L52.1458 51.776ZM46.6738 47.024L45.8269 47.5558L45.8342 47.5673L45.8418 47.5787L46.6738 47.024ZM46.6018 25.208L47.4521 25.7344L47.4575 25.7254L46.6018 25.208ZM51.5698 20.312L51.0758 19.4425L51.0672 19.4475L51.5698 20.312ZM65.1058 20.24L64.6097 21.1082L64.6218 21.1152L64.6342 21.1218L65.1058 20.24ZM70.0738 24.848L70.9183 24.3125L70.9183 24.3125L70.0738 24.848ZM71.0098 35.648L71.8042 36.2554L71.8042 36.2554L71.0098 35.648ZM68.6338 37.16L68.7898 38.1478L68.8099 38.1446L68.8299 38.1406L68.6338 37.16ZM49.4098 37.376V36.376H48.4098V37.376H49.4098ZM52.5058 46.88L53.1371 46.1044L53.1371 46.1044L52.5058 46.88ZM64.8178 48.68L64.404 47.7696L64.404 47.7696L64.8178 48.68ZM67.2658 47.24L66.6561 46.4474L66.6406 46.4593L66.6256 46.4718L67.2658 47.24ZM70.0018 46.952L69.2947 47.6591L69.3532 47.7176L69.4206 47.7657L70.0018 46.952ZM70.7218 47.816L69.8027 48.2099L69.8252 48.2625L69.8536 48.3121L70.7218 47.816ZM69.7138 50.696L69.0494 49.9486L69.0494 49.9486L69.7138 50.696ZM65.9698 52.712L66.2776 53.6634L66.2902 53.6594L66.3026 53.655L65.9698 52.712ZM49.4098 33.92H48.4098V34.92H49.4098V33.92ZM66.6898 33.488L67.2043 34.3455L67.2345 34.3274L67.2633 34.3072L66.6898 33.488ZM66.2578 27.152L65.3822 27.6351L65.3858 27.6416L65.3896 27.6481L66.2578 27.152ZM63.0898 23.768L62.5283 24.5955L62.5386 24.6025L62.5491 24.6092L63.0898 23.768ZM53.8738 23.624L53.3681 22.7613L53.3614 22.7652L53.3548 22.7692L53.8738 23.624ZM50.6338 26.792L49.7876 26.2592L49.7876 26.2592L50.6338 26.792ZM60.2098 52.504C57.3147 52.504 54.781 51.9532 52.5857 50.8779L51.7059 52.6741C54.2146 53.9028 57.0569 54.504 60.2098 54.504V52.504ZM52.593 50.8816C50.4345 49.8023 48.7472 48.3313 47.5059 46.4693L45.8418 47.5787C47.2884 49.7487 49.2491 51.4457 51.6986 52.6704L52.593 50.8816ZM47.5207 46.4922C46.3367 44.6065 45.7298 42.3956 45.7298 39.824H43.7298C43.7298 42.7244 44.419 45.3135 45.8269 47.5558L47.5207 46.4922ZM45.7298 39.824V31.832H43.7298V39.824H45.7298ZM45.7298 31.832C45.7298 29.6156 46.3032 27.5902 47.4521 25.7344L45.7515 24.6816C44.4044 26.8578 43.7298 29.2484 43.7298 31.832H45.7298ZM47.4575 25.7254C48.6197 23.8033 50.1549 22.2913 52.0724 21.1765L51.0672 19.4475C48.8567 20.7327 47.0799 22.4847 45.7461 24.6906L47.4575 25.7254ZM52.0638 21.1815C54.021 20.0694 56.154 19.512 58.4818 19.512V17.512C55.8176 17.512 53.3427 18.1546 51.0758 19.4425L52.0638 21.1815ZM58.4818 19.512C60.7139 19.512 62.75 20.0456 64.6097 21.1082L65.6019 19.3718C63.4296 18.1304 61.0497 17.512 58.4818 17.512V19.512ZM64.6342 21.1218C66.5468 22.1448 68.0741 23.5619 69.2293 25.3835L70.9183 24.3125C69.5775 22.1981 67.7928 20.5432 65.5775 19.3582L64.6342 21.1218ZM69.2293 25.3835C70.3646 27.1738 70.9458 29.2637 70.9458 31.688H72.9458C72.9458 28.9283 72.279 26.4582 70.9183 24.3125L69.2293 25.3835ZM70.9458 31.688C70.9458 33.4435 70.6368 34.4896 70.2155 35.0405L71.8042 36.2554C72.6308 35.1744 72.9458 33.5805 72.9458 31.688H70.9458ZM70.2155 35.0405C69.731 35.674 69.1471 36.0375 68.4377 36.1794L68.8299 38.1406C70.0405 37.8985 71.0406 37.254 71.8042 36.2554L70.2155 35.0405ZM68.4778 36.1722C67.6241 36.307 66.6929 36.376 65.6818 36.376V38.376C66.7828 38.376 67.8195 38.301 68.7898 38.1478L68.4778 36.1722ZM65.6818 36.376H49.4098V38.376H65.6818V36.376ZM48.4098 37.376V40.04H50.4098V37.376H48.4098ZM48.4098 40.04C48.4098 43.1926 49.5562 45.7685 51.8745 47.6556L53.1371 46.1044C51.3274 44.6315 50.4098 42.6474 50.4098 40.04H48.4098ZM51.8745 47.6556C54.1493 49.5071 57.0014 50.4 60.3538 50.4V48.4C57.3702 48.4 54.9903 47.6129 53.1371 46.1044L51.8745 47.6556ZM60.3538 50.4C62.3348 50.4 63.9875 50.1559 65.2316 49.5904L64.404 47.7696C63.5361 48.1641 62.2129 48.4 60.3538 48.4V50.4ZM65.2316 49.5904C66.3298 49.0912 67.2345 48.5678 67.906 48.0082L66.6256 46.4718C66.1451 46.8722 65.4178 47.3088 64.404 47.7696L65.2316 49.5904ZM67.8755 48.0326C68.4067 47.624 68.7713 47.52 68.9938 47.52V45.52C68.1603 45.52 67.3729 45.896 66.6561 46.4474L67.8755 48.0326ZM68.9938 47.52C69.0953 47.52 69.1816 47.546 69.2947 47.6591L70.7089 46.2449C70.246 45.782 69.6604 45.52 68.9938 45.52V47.52ZM69.4206 47.7657C69.6274 47.9135 69.7398 48.0631 69.8027 48.2099L71.641 47.4221C71.4159 46.8969 71.0482 46.4705 70.583 46.1383L69.4206 47.7657ZM69.8536 48.3121C69.9878 48.5471 70.0098 48.6878 70.0098 48.752H72.0098C72.0098 48.2402 71.8398 47.7569 71.5901 47.3199L69.8536 48.3121ZM70.0098 48.752C70.0098 48.7455 70.0094 48.8459 69.8538 49.0793C69.7021 49.3068 69.4452 49.5968 69.0494 49.9486L70.3782 51.4434C70.8464 51.0272 71.2375 50.6092 71.5179 50.1887C71.7942 49.7741 72.0098 49.2865 72.0098 48.752H70.0098ZM69.0494 49.9486C68.3179 50.5988 67.2018 51.2167 65.637 51.769L66.3026 53.655C68.0018 53.0553 69.3817 52.3292 70.3782 51.4434L69.0494 49.9486ZM65.662 51.7606C64.1533 52.2487 62.3417 52.504 60.2098 52.504V54.504C62.4939 54.504 64.5224 54.2313 66.2776 53.6634L65.662 51.7606ZM49.4098 34.92H63.8098V32.92H49.4098V34.92ZM63.8098 34.92C64.5582 34.92 65.2117 34.8829 65.7581 34.8009C66.2866 34.7217 66.7984 34.5891 67.2043 34.3455L66.1753 32.6305C66.1012 32.6749 65.8931 32.7583 65.4615 32.8231C65.0479 32.8851 64.5015 32.92 63.8098 32.92V34.92ZM67.2633 34.3072C68.1566 33.6819 68.4098 32.5739 68.4098 31.472H66.4098C66.4098 32.3861 66.183 32.6221 66.1163 32.6688L67.2633 34.3072ZM68.4098 31.472C68.4098 29.7606 67.9797 28.1497 67.1261 26.6559L65.3896 27.6481C66.0719 28.8423 66.4098 30.1114 66.4098 31.472H68.4098ZM67.1334 26.6689C66.2848 25.1309 65.1134 23.8801 63.6306 22.9268L62.5491 24.6092C63.7542 25.3839 64.6948 26.3891 65.3822 27.6351L67.1334 26.6689ZM63.6513 22.9405C62.1262 21.9056 60.3665 21.4 58.4098 21.4V23.4C60.0051 23.4 61.3655 23.8064 62.5283 24.5955L63.6513 22.9405ZM58.4098 21.4C56.6022 21.4 54.9153 21.8543 53.3681 22.7613L54.3795 24.4867C55.6163 23.7617 56.9534 23.4 58.4098 23.4V21.4ZM53.3548 22.7692C51.8819 23.6635 50.6885 24.8284 49.7876 26.2592L51.48 27.3248C52.2112 26.1636 53.1777 25.2165 54.3928 24.4788L53.3548 22.7692ZM49.7876 26.2592C48.8644 27.7253 48.4098 29.3764 48.4098 31.184H50.4098C50.4098 29.7276 50.7712 28.4507 51.48 27.3248L49.7876 26.2592ZM48.4098 31.184V33.92H50.4098V31.184H48.4098ZM84.3304 51.632L83.8129 52.4878L83.8216 52.4929L84.3304 51.632ZM79.3624 46.664L78.4929 47.158L78.4996 47.1698L78.5066 47.1814L79.3624 46.664ZM78.2824 19.52L77.6577 18.7391L77.6577 18.7391L78.2824 19.52ZM81.5224 19.52L80.858 20.2674L80.8774 20.2847L80.8977 20.3009L81.5224 19.52ZM83.4664 44.432L82.6037 44.9377L82.6037 44.9377L83.4664 44.432ZM86.7064 47.888L86.1449 48.7155L86.1551 48.7225L86.1656 48.7292L86.7064 47.888ZM99.0184 44.504L98.1483 44.011L98.1428 44.0209L99.0184 44.504ZM104.274 19.448L103.616 20.2006L103.638 20.2196L103.66 20.2374L104.274 19.448ZM103.05 46.736L102.195 46.2186L102.191 46.2245L103.05 46.736ZM98.0824 51.632L97.5736 50.771L97.5649 50.7763L98.0824 51.632ZM91.3144 52.504C88.9424 52.504 86.7911 51.9246 84.8391 50.7711L83.8216 52.4929C86.0936 53.8354 88.5983 54.504 91.3144 54.504V52.504ZM84.8478 50.7763C82.9223 49.612 81.3824 48.0721 80.2181 46.1466L78.5066 47.1814C79.8384 49.3839 81.6104 51.156 83.8129 52.4877L84.8478 50.7763ZM80.2318 46.17C79.1144 44.2034 78.5624 42.141 78.5624 39.968H76.5624C76.5624 42.499 77.2103 44.9006 78.4929 47.158L80.2318 46.17ZM78.5624 39.968V20.816H76.5624V39.968H78.5624ZM78.5624 20.816C78.5624 20.7217 78.5919 20.553 78.907 20.3009L77.6577 18.7391C77.0128 19.255 76.5624 19.9502 76.5624 20.816H78.5624ZM78.907 20.3009C79.2068 20.061 79.5377 19.944 79.9384 19.944V17.944C79.091 17.944 78.3179 18.211 77.6577 18.7391L78.907 20.3009ZM79.9384 19.944C80.3386 19.944 80.6243 20.0596 80.858 20.2674L82.1867 18.7726C81.5564 18.2124 80.7861 17.944 79.9384 17.944V19.944ZM80.8977 20.3009C81.2128 20.553 81.2424 20.7217 81.2424 20.816H83.2424C83.2424 19.9502 82.7919 19.255 82.147 18.7391L80.8977 20.3009ZM81.2424 20.816V39.968H83.2424V20.816H81.2424ZM81.2424 39.968C81.2424 41.7332 81.6995 43.3954 82.6037 44.9377L84.3291 43.9263C83.6012 42.6846 83.2424 41.3708 83.2424 39.968H81.2424ZM82.6037 44.9377C83.4954 46.4589 84.6786 47.7205 86.1449 48.7155L87.2679 47.0605C86.0461 46.2315 85.0693 45.1891 84.3291 43.9263L82.6037 44.9377ZM86.1656 48.7292C87.6794 49.7023 89.381 50.184 91.2424 50.184V48.184C89.7437 48.184 88.4213 47.8017 87.2471 47.0468L86.1656 48.7292ZM91.2424 50.184C93.1458 50.184 94.8726 49.7053 96.3911 48.7292L95.3096 47.0468C94.1401 47.7987 92.7949 48.184 91.2424 48.184V50.184ZM96.3911 48.7292C97.874 47.7759 99.0453 46.5251 99.8939 44.9871L98.1428 44.0209C97.4554 45.2669 96.5147 46.2721 95.3096 47.0468L96.3911 48.7292ZM99.8884 44.997C100.786 43.4137 101.242 41.7327 101.242 39.968H99.2424C99.2424 41.3713 98.8831 42.7143 98.1483 44.011L99.8884 44.997ZM101.242 39.968V20.744H99.2424V39.968H101.242ZM101.242 20.744C101.242 20.5819 101.289 20.44 101.536 20.2672L100.389 18.6288C99.6758 19.128 99.2424 19.8501 99.2424 20.744H101.242ZM101.536 20.2672C101.837 20.0567 102.185 19.944 102.618 19.944V17.944C101.803 17.944 101.048 18.1673 100.389 18.6288L101.536 20.2672ZM102.618 19.944C103.195 19.944 103.477 20.0789 103.616 20.2006L104.933 18.6954C104.304 18.1451 103.482 17.944 102.618 17.944V19.944ZM103.66 20.2374C103.859 20.392 103.922 20.5375 103.922 20.744H105.922C105.922 19.8945 105.554 19.176 104.888 18.6586L103.66 20.2374ZM103.922 20.744V39.968H105.922V20.744H103.922ZM103.922 39.968C103.922 42.2365 103.347 44.3131 102.195 46.2186L103.906 47.2534C105.25 45.0309 105.922 42.5955 105.922 39.968H103.922ZM102.191 46.2245C101.081 48.0898 99.5482 49.6043 97.5736 50.7711L98.5911 52.4929C100.841 51.1637 102.62 49.4142 103.91 47.2475L102.191 46.2245ZM97.5649 50.7763C95.6595 51.9284 93.5828 52.504 91.3144 52.504V54.504C93.9419 54.504 96.3772 53.8316 98.5998 52.4877L97.5649 50.7763ZM115.801 52.64L115.477 53.586L115.485 53.5887L115.801 52.64ZM111.841 50.624L111.174 51.3692L111.195 51.3876L111.216 51.4049L111.841 50.624ZM110.689 47.384L111.584 47.8312L111.597 47.8049L111.608 47.7779L110.689 47.384ZM111.265 46.52L110.625 45.7518L110.59 45.7808L110.558 45.8129L111.265 46.52ZM113.857 47.024L113.179 47.7588L113.208 47.7858L113.239 47.8103L113.857 47.024ZM116.593 48.68L116.146 49.5744L116.153 49.578L116.16 49.5815L116.593 48.68ZM127.393 48.032L128.067 48.7705L128.076 48.7627L128.084 48.7546L127.393 48.032ZM127.753 40.76L127.008 41.4268L127.026 41.4475L127.046 41.4671L127.753 40.76ZM124.441 38.672L124.105 39.6138L124.115 39.6174L124.441 38.672ZM120.121 37.304L119.842 38.2644L119.85 38.2667L120.121 37.304ZM115.801 35.72L115.38 36.6271L115.392 36.6325L115.801 35.72ZM112.489 33.056L111.662 33.6183L111.675 33.6375L111.689 33.656L112.489 33.056ZM116.017 20.024L115.503 19.1664L115.492 19.1732L116.017 20.024ZM127.249 19.016L127.469 18.0406L127.469 18.0406L127.249 19.016ZM130.849 20.384L130.315 21.2295L130.341 21.2456L130.367 21.2602L130.849 20.384ZM132.001 23.048L131.087 22.6419L131.075 22.669L131.065 22.6969L132.001 23.048ZM128.761 23.984L128.287 24.8645L128.3 24.8717L128.314 24.8784L128.761 23.984ZM118.537 23.408L119.046 24.2689L119.046 24.2689L118.537 23.408ZM116.233 25.64L117.107 26.1256L117.107 26.1256L116.233 25.64ZM116.809 31.256L117.449 30.4878L117.449 30.4878L116.809 31.256ZM120.121 33.056L119.785 33.9977L119.805 34.0048L119.825 34.0111L120.121 33.056ZM124.441 34.352L124.162 35.3123L124.18 35.3176L124.199 35.3221L124.441 34.352ZM128.761 36.008L128.289 36.8895L128.295 36.8929L128.302 36.8962L128.761 36.008ZM132.073 39.032L131.227 39.5648L131.234 39.5758L131.241 39.5867L132.073 39.032ZM130.345 50.984L129.705 50.2158L129.705 50.2158L130.345 50.984ZM121.777 52.504C119.604 52.504 117.722 52.2263 116.117 51.6913L115.485 53.5887C117.336 54.2057 119.438 54.504 121.777 54.504V52.504ZM116.125 51.6941C114.51 51.1402 113.306 50.5149 112.466 49.8431L111.216 51.4049C112.297 52.2691 113.732 52.9878 115.477 53.5859L116.125 51.6941ZM112.508 49.8788C111.666 49.1259 111.473 48.6091 111.473 48.32H109.473C109.473 49.4709 110.192 50.4901 111.174 51.3692L112.508 49.8788ZM111.473 48.32C111.473 48.1323 111.512 47.9743 111.584 47.8312L109.795 46.9368C109.578 47.3697 109.473 47.8357 109.473 48.32H111.473ZM111.608 47.7779C111.706 47.5498 111.829 47.3704 111.972 47.2271L110.558 45.8129C110.221 46.1496 109.96 46.5462 109.77 46.9901L111.608 47.7779ZM111.905 47.2882C111.987 47.2199 112.047 47.1877 112.082 47.1731C112.114 47.1596 112.128 47.16 112.129 47.16V45.16C111.544 45.16 111.038 45.4079 110.625 45.7518L111.905 47.2882ZM112.129 47.16C112.291 47.16 112.633 47.2549 113.179 47.7588L114.535 46.2892C113.833 45.6411 113.023 45.16 112.129 45.16V47.16ZM113.239 47.8103C113.984 48.3953 114.961 48.9818 116.146 49.5744L117.04 47.7856C115.922 47.2262 115.074 46.7087 114.475 46.2377L113.239 47.8103ZM116.16 49.5815C117.554 50.2505 119.406 50.544 121.633 50.544V48.544C119.54 48.544 118.032 48.2615 117.026 47.7785L116.16 49.5815ZM121.633 50.544C124.433 50.544 126.677 50.0398 128.067 48.7705L126.719 47.2935C125.901 48.0402 124.305 48.544 121.633 48.544V50.544ZM128.084 48.7546C129.356 47.5383 130.049 46.0873 130.049 44.432H128.049C128.049 45.4647 127.638 46.4137 126.702 47.3094L128.084 48.7546ZM130.049 44.432C130.049 42.6648 129.563 41.1554 128.46 40.0529L127.046 41.4671C127.672 42.0926 128.049 43.0312 128.049 44.432H130.049ZM128.498 40.0932C127.548 39.0306 126.288 38.251 124.767 37.7266L124.115 39.6174C125.379 40.053 126.327 40.6654 127.008 41.4268L128.498 40.0932ZM124.777 37.7303C123.41 37.2417 121.947 36.7789 120.392 36.3413L119.85 38.2667C121.367 38.6931 122.785 39.1423 124.105 39.6137L124.777 37.7303ZM120.4 36.3437C118.956 35.9244 117.559 35.4123 116.21 34.8075L115.392 36.6325C116.827 37.2757 118.311 37.8196 119.842 38.2643L120.4 36.3437ZM116.222 34.813C115.023 34.2564 114.051 33.472 113.289 32.456L111.689 33.656C112.655 34.944 113.891 35.9356 115.38 36.627L116.222 34.813ZM113.316 32.4937C112.647 31.5091 112.265 30.1412 112.265 28.304H110.265C110.265 30.4028 110.7 32.2029 111.662 33.6183L113.316 32.4937ZM112.265 28.304C112.265 26.9416 112.604 25.5859 113.306 24.2266L111.529 23.3094C110.694 24.9261 110.265 26.5944 110.265 28.304H112.265ZM113.306 24.2266C113.979 22.9222 115.042 21.8016 116.543 20.8748L115.492 19.1732C113.728 20.2624 112.391 21.6378 111.529 23.3094L113.306 24.2266ZM116.532 20.8815C118.006 19.9966 120.018 19.512 122.641 19.512V17.512C119.792 17.512 117.388 18.0354 115.503 19.1665L116.532 20.8815ZM122.641 19.512C124.154 19.512 125.616 19.6724 127.029 19.9914L127.469 18.0406C125.906 17.6876 124.296 17.512 122.641 17.512V19.512ZM127.029 19.9914C128.448 20.3119 129.53 20.7339 130.315 21.2295L131.383 19.5385C130.344 18.8821 129.026 18.3921 127.469 18.0406L127.029 19.9914ZM130.367 21.2602C131.255 21.7482 131.289 22.0669 131.289 22.112H133.289C133.289 20.9091 132.364 20.0758 131.331 19.5078L130.367 21.2602ZM131.289 22.112C131.289 22.0626 131.298 22.0785 131.261 22.1959C131.229 22.301 131.174 22.4477 131.087 22.6419L132.915 23.4541C133.104 23.0289 133.289 22.5399 133.289 22.112H131.289ZM131.065 22.6969C130.971 22.9482 130.832 23.1626 130.646 23.3489L132.06 24.7631C132.45 24.3734 132.744 23.9158 132.937 23.3991L131.065 22.6969ZM130.646 23.3489C130.533 23.462 130.447 23.488 130.345 23.488V25.488C131.012 25.488 131.597 25.226 132.06 24.7631L130.646 23.3489ZM130.345 23.488C130.204 23.488 129.85 23.4103 129.208 23.0896L128.314 24.8784C129.016 25.2297 129.718 25.488 130.345 25.488V23.488ZM129.235 23.1035C128.542 22.7305 127.668 22.3735 126.629 22.0273L125.997 23.9247C126.975 24.2505 127.732 24.5655 128.287 24.8645L129.235 23.1035ZM126.629 22.0273C125.493 21.6486 124.181 21.472 122.713 21.472V23.472C124.029 23.472 125.117 23.6313 125.997 23.9247L126.629 22.0273ZM122.713 21.472C120.876 21.472 119.289 21.8022 118.028 22.5471L119.046 24.2689C119.897 23.7658 121.095 23.472 122.713 23.472V21.472ZM118.028 22.5471C116.856 23.2399 115.944 24.1017 115.359 25.1544L117.107 26.1256C117.482 25.4503 118.106 24.8241 119.046 24.2689L118.028 22.5471ZM115.359 25.1544C114.814 26.1357 114.513 27.1416 114.513 28.16H116.513C116.513 27.5464 116.692 26.8723 117.107 26.1256L115.359 25.1544ZM114.513 28.16C114.513 29.7368 115.032 31.0768 116.169 32.0242L117.449 30.4878C116.858 29.9952 116.513 29.2712 116.513 28.16H114.513ZM116.169 32.0242C117.144 32.8366 118.359 33.4884 119.785 33.9977L120.457 32.1143C119.196 31.6636 118.202 31.1154 117.449 30.4878L116.169 32.0242ZM119.825 34.0111C121.223 34.445 122.669 34.8787 124.162 35.3123L124.72 33.3917C123.237 32.9613 121.803 32.531 120.418 32.1009L119.825 34.0111ZM124.199 35.3221C125.658 35.6869 127.02 36.2099 128.289 36.8895L129.233 35.1265C127.814 34.3661 126.297 33.7851 124.684 33.3819L124.199 35.3221ZM128.302 36.8962C129.539 37.5363 130.508 38.4233 131.227 39.5648L132.919 38.4992C132.006 37.0487 130.767 35.9197 129.221 35.1198L128.302 36.8962ZM131.241 39.5867C131.961 40.6662 132.369 42.1796 132.369 44.216H134.369C134.369 41.9324 133.914 39.9898 132.905 38.4773L131.241 39.5867ZM132.369 44.216C132.369 46.778 131.473 48.7423 129.705 50.2158L130.985 51.7522C133.249 49.8657 134.369 47.318 134.369 44.216H132.369ZM129.705 50.2158C127.93 51.6951 125.333 52.504 121.777 52.504V54.504C125.613 54.504 128.729 53.6329 130.985 51.7522L129.705 50.2158ZM154.243 52.568L153.629 53.3574L153.677 53.3944L153.728 53.4255L154.243 52.568ZM154.243 0.871997L154.798 1.70405L154.807 1.69775L154.816 1.69123L154.243 0.871997ZM182.755 1.088L181.897 1.6025L181.91 1.6229L181.923 1.6427L182.755 1.088ZM182.683 4.112L181.864 3.53854L181.857 3.54784L181.851 3.5573L182.683 4.112ZM158.347 4.76V3.76H157.347V4.76H158.347ZM158.347 24.56H157.347V25.56H158.347V24.56ZM170.947 25.208L170.115 25.7627L170.135 25.7931L170.158 25.8219L170.947 25.208ZM171.019 28.088L171.851 28.6427L171.851 28.6427L171.019 28.088ZM158.347 28.736V27.736H157.347V28.736H158.347ZM158.347 48.608H157.347V49.608H158.347V48.608ZM182.683 49.256L181.851 49.8107L181.871 49.8411L181.894 49.8699L182.683 49.256ZM182.755 52.352L183.587 52.9067L183.6 52.8869L183.612 52.8665L182.755 52.352ZM155.755 52C155.419 52 155.092 51.9111 154.757 51.7105L153.728 53.4255C154.354 53.8009 155.035 54 155.755 54V52ZM154.857 51.7786C154.705 51.6603 154.595 51.4925 154.595 51.128H152.595C152.595 52.0115 152.917 52.8037 153.629 53.3574L154.857 51.7786ZM154.595 51.128V2.24H152.595V51.128H154.595ZM154.595 2.24C154.595 1.87285 154.703 1.76736 154.798 1.70405L153.688 0.0399464C152.919 0.552635 152.595 1.35914 152.595 2.24H154.595ZM154.816 1.69123C155.148 1.45941 155.454 1.368 155.755 1.368V-0.632C154.999 -0.632 154.298 -0.387413 153.669 0.0527641L154.816 1.69123ZM155.755 1.368H181.387V-0.632H155.755V1.368ZM181.387 1.368C181.708 1.368 181.814 1.46295 181.897 1.6025L183.612 0.573502C183.12 -0.246951 182.314 -0.632 181.387 -0.632V1.368ZM181.923 1.6427C182.099 1.90749 182.187 2.19386 182.187 2.528H184.187C184.187 1.80613 183.986 1.1325 183.587 0.5333L181.923 1.6427ZM182.187 2.528C182.187 2.89508 182.084 3.22353 181.864 3.53854L183.502 4.68546C183.954 4.04047 184.187 3.31291 184.187 2.528H182.187ZM181.851 3.5573C181.771 3.67709 181.672 3.76 181.387 3.76V5.76C182.254 5.76 183.019 5.4109 183.515 4.6667L181.851 3.5573ZM181.387 3.76H158.347V5.76H181.387V3.76ZM157.347 4.76V24.56H159.347V4.76H157.347ZM158.347 25.56H169.651V23.56H158.347V25.56ZM169.651 25.56C169.936 25.56 170.035 25.6429 170.115 25.7627L171.779 24.6533C171.283 23.9091 170.518 23.56 169.651 23.56V25.56ZM170.158 25.8219C170.35 26.0688 170.451 26.3539 170.451 26.72H172.451C172.451 25.9341 172.216 25.2112 171.736 24.5941L170.158 25.8219ZM170.451 26.72C170.451 26.9864 170.375 27.2515 170.187 27.5333L171.851 28.6427C172.239 28.0605 172.451 27.4136 172.451 26.72H170.451ZM170.187 27.5333C170.124 27.6283 170.018 27.736 169.651 27.736V29.736C170.532 29.736 171.338 29.4117 171.851 28.6427L170.187 27.5333ZM169.651 27.736H158.347V29.736H169.651V27.736ZM157.347 28.736V48.608H159.347V28.736H157.347ZM158.347 49.608H181.387V47.608H158.347V49.608ZM181.387 49.608C181.672 49.608 181.771 49.6909 181.851 49.8107L183.515 48.7013C183.019 47.9571 182.254 47.608 181.387 47.608V49.608ZM181.894 49.8699C182.074 50.1022 182.187 50.4057 182.187 50.84H184.187C184.187 50.0263 183.964 49.2738 183.472 48.6421L181.894 49.8699ZM182.187 50.84C182.187 51.1757 182.098 51.5032 181.897 51.8375L183.612 52.8665C183.988 52.2408 184.187 51.5603 184.187 50.84H182.187ZM181.923 51.7973C181.86 51.8923 181.754 52 181.387 52V54C182.268 54 183.074 53.6757 183.587 52.9067L181.923 51.7973ZM181.387 52H155.755V54H181.387V52ZM191.381 52.64L191.057 53.586L191.065 53.5887L191.381 52.64ZM187.421 50.624L186.755 51.3692L186.775 51.3876L186.797 51.4049L187.421 50.624ZM186.269 47.384L187.164 47.8312L187.177 47.8049L187.189 47.7779L186.269 47.384ZM186.845 46.52L186.205 45.7518L186.17 45.7808L186.138 45.8129L186.845 46.52ZM189.437 47.024L188.759 47.7588L188.788 47.7858L188.82 47.8103L189.437 47.024ZM192.173 48.68L191.726 49.5744L191.733 49.578L191.741 49.5815L192.173 48.68ZM202.973 48.032L203.648 48.7705L203.656 48.7627L203.665 48.7546L202.973 48.032ZM203.333 40.76L202.588 41.4268L202.607 41.4475L202.626 41.4671L203.333 40.76ZM200.021 38.672L199.685 39.6138L199.695 39.6174L200.021 38.672ZM195.701 37.304L195.423 38.2644L195.431 38.2667L195.701 37.304ZM191.381 35.72L190.96 36.6271L190.972 36.6325L191.381 35.72ZM188.069 33.056L187.243 33.6183L187.256 33.6375L187.269 33.656L188.069 33.056ZM191.597 20.024L191.083 19.1664L191.072 19.1732L191.597 20.024ZM202.829 19.016L203.05 18.0406L203.05 18.0406L202.829 19.016ZM206.429 20.384L205.895 21.2295L205.921 21.2456L205.948 21.2602L206.429 20.384ZM207.581 23.048L206.668 22.6419L206.656 22.669L206.645 22.6969L207.581 23.048ZM204.341 23.984L203.867 24.8645L203.881 24.8717L203.894 24.8784L204.341 23.984ZM194.117 23.408L194.626 24.2689L194.626 24.2689L194.117 23.408ZM191.813 25.64L192.688 26.1256L192.688 26.1256L191.813 25.64ZM192.389 31.256L193.03 30.4878L193.03 30.4878L192.389 31.256ZM195.701 33.056L195.365 33.9977L195.385 34.0048L195.405 34.0111L195.701 33.056ZM200.021 34.352L199.743 35.3123L199.761 35.3176L199.779 35.3221L200.021 34.352ZM204.341 36.008L203.869 36.8895L203.876 36.8929L203.882 36.8962L204.341 36.008ZM207.653 39.032L206.807 39.5648L206.814 39.5758L206.821 39.5867L207.653 39.032ZM205.925 50.984L205.285 50.2158L205.285 50.2158L205.925 50.984ZM197.357 52.504C195.184 52.504 193.303 52.2263 191.698 51.6913L191.065 53.5887C192.916 54.2057 195.019 54.504 197.357 54.504V52.504ZM191.706 51.6941C190.091 51.1402 188.886 50.5149 188.046 49.8431L186.797 51.4049C187.877 52.2691 189.312 52.9878 191.057 53.5859L191.706 51.6941ZM188.088 49.8788C187.247 49.1259 187.053 48.6091 187.053 48.32H185.053C185.053 49.4709 185.772 50.4901 186.755 51.3692L188.088 49.8788ZM187.053 48.32C187.053 48.1323 187.092 47.9743 187.164 47.8312L185.375 46.9368C185.159 47.3697 185.053 47.8357 185.053 48.32H187.053ZM187.189 47.7779C187.286 47.5498 187.409 47.3704 187.553 47.2271L186.138 45.8129C185.802 46.1496 185.541 46.5462 185.35 46.9901L187.189 47.7779ZM187.486 47.2882C187.568 47.2199 187.627 47.1877 187.662 47.1731C187.694 47.1596 187.708 47.16 187.709 47.16V45.16C187.125 45.16 186.618 45.4079 186.205 45.7518L187.486 47.2882ZM187.709 47.16C187.871 47.16 188.213 47.2549 188.759 47.7588L190.116 46.2892C189.414 45.6411 188.604 45.16 187.709 45.16V47.16ZM188.82 47.8103C189.564 48.3953 190.541 48.9818 191.726 49.5744L192.621 47.7856C191.502 47.2262 190.655 46.7087 190.055 46.2377L188.82 47.8103ZM191.741 49.5815C193.134 50.2505 194.986 50.544 197.213 50.544V48.544C195.121 48.544 193.613 48.2615 192.606 47.7785L191.741 49.5815ZM197.213 50.544C200.014 50.544 202.258 50.0398 203.648 48.7705L202.299 47.2935C201.481 48.0402 199.885 48.544 197.213 48.544V50.544ZM203.665 48.7546C204.936 47.5383 205.629 46.0873 205.629 44.432H203.629C203.629 45.4647 203.219 46.4137 202.282 47.3094L203.665 48.7546ZM205.629 44.432C205.629 42.6648 205.143 41.1554 204.041 40.0529L202.626 41.4671C203.252 42.0926 203.629 43.0312 203.629 44.432H205.629ZM204.079 40.0932C203.128 39.0306 201.868 38.251 200.347 37.7266L199.695 39.6174C200.959 40.053 201.907 40.6654 202.588 41.4268L204.079 40.0932ZM200.358 37.7303C198.99 37.2417 197.528 36.7789 195.972 36.3413L195.431 38.2667C196.947 38.6931 198.365 39.1423 199.685 39.6137L200.358 37.7303ZM195.98 36.3437C194.536 35.9244 193.14 35.4123 191.791 34.8075L190.972 36.6325C192.407 37.2757 193.891 37.8196 195.423 38.2643L195.98 36.3437ZM191.803 34.813C190.604 34.2564 189.631 33.472 188.869 32.456L187.269 33.656C188.235 34.944 189.471 35.9356 190.96 36.627L191.803 34.813ZM188.896 32.4937C188.227 31.5091 187.845 30.1412 187.845 28.304H185.845C185.845 30.4028 186.28 32.2029 187.243 33.6183L188.896 32.4937ZM187.845 28.304C187.845 26.9416 188.185 25.5859 188.886 24.2266L187.109 23.3094C186.274 24.9261 185.845 26.5944 185.845 28.304H187.845ZM188.886 24.2266C189.559 22.9222 190.622 21.8016 192.123 20.8748L191.072 19.1732C189.308 20.2624 187.972 21.6378 187.109 23.3094L188.886 24.2266ZM192.112 20.8815C193.587 19.9966 195.598 19.512 198.221 19.512V17.512C195.373 17.512 192.968 18.0354 191.083 19.1665L192.112 20.8815ZM198.221 19.512C199.734 19.512 201.196 19.6724 202.609 19.9914L203.05 18.0406C201.487 17.6876 199.877 17.512 198.221 17.512V19.512ZM202.609 19.9914C204.028 20.3119 205.111 20.7339 205.895 21.2295L206.963 19.5385C205.924 18.8821 204.607 18.3921 203.05 18.0406L202.609 19.9914ZM205.948 21.2602C206.835 21.7482 206.869 22.0669 206.869 22.112H208.869C208.869 20.9091 207.944 20.0758 206.911 19.5078L205.948 21.2602ZM206.869 22.112C206.869 22.0626 206.878 22.0785 206.842 22.1959C206.809 22.301 206.754 22.4477 206.668 22.6419L208.495 23.4541C208.684 23.0289 208.869 22.5399 208.869 22.112H206.869ZM206.645 22.6969C206.551 22.9482 206.413 23.1626 206.226 23.3489L207.641 24.7631C208.03 24.3734 208.324 23.9158 208.518 23.3991L206.645 22.6969ZM206.226 23.3489C206.113 23.462 206.027 23.488 205.925 23.488V25.488C206.592 25.488 207.178 25.226 207.641 24.7631L206.226 23.3489ZM205.925 23.488C205.784 23.488 205.43 23.4103 204.789 23.0896L203.894 24.8784C204.597 25.2297 205.299 25.488 205.925 25.488V23.488ZM204.816 23.1035C204.123 22.7305 203.248 22.3735 202.21 22.0273L201.577 23.9247C202.555 24.2505 203.312 24.5655 203.867 24.8645L204.816 23.1035ZM202.21 22.0273C201.074 21.6486 199.762 21.472 198.293 21.472V23.472C199.609 23.472 200.697 23.6313 201.577 23.9247L202.21 22.0273ZM198.293 21.472C196.456 21.472 194.869 21.8022 193.609 22.5471L194.626 24.2689C195.478 23.7658 196.675 23.472 198.293 23.472V21.472ZM193.609 22.5471C192.436 23.2399 191.524 24.1017 190.939 25.1544L192.688 26.1256C193.063 25.4503 193.687 24.8241 194.626 24.2689L193.609 22.5471ZM190.939 25.1544C190.394 26.1357 190.093 27.1416 190.093 28.16H192.093C192.093 27.5464 192.273 26.8723 192.688 26.1256L190.939 25.1544ZM190.093 28.16C190.093 29.7368 190.612 31.0768 191.749 32.0242L193.03 30.4878C192.439 29.9952 192.093 29.2712 192.093 28.16H190.093ZM191.749 32.0242C192.724 32.8366 193.939 33.4884 195.365 33.9977L196.038 32.1143C194.776 31.6636 193.783 31.1154 193.03 30.4878L191.749 32.0242ZM195.405 34.0111C196.803 34.445 198.249 34.8787 199.743 35.3123L200.3 33.3917C198.818 32.9613 197.384 32.531 195.998 32.1009L195.405 34.0111ZM199.779 35.3221C201.238 35.6869 202.601 36.2099 203.869 36.8895L204.814 35.1265C203.394 34.3661 201.877 33.7851 200.264 33.3819L199.779 35.3221ZM203.882 36.8962C205.12 37.5363 206.088 38.4233 206.807 39.5648L208.5 38.4992C207.586 37.0487 206.347 35.9197 204.801 35.1198L203.882 36.8962ZM206.821 39.5867C207.541 40.6662 207.949 42.1796 207.949 44.216H209.949C209.949 41.9324 209.494 39.9898 208.486 38.4773L206.821 39.5867ZM207.949 44.216C207.949 46.778 207.054 48.7423 205.285 50.2158L206.566 51.7522C208.829 49.8657 209.949 47.318 209.949 44.216H207.949ZM205.285 50.2158C203.51 51.6951 200.914 52.504 197.357 52.504V54.504C201.193 54.504 204.309 53.6329 206.566 51.7522L205.285 50.2158ZM219.801 51.704L220.304 50.8395L220.304 50.8395L219.801 51.704ZM215.193 46.808L214.295 47.2468L214.295 47.2468L215.193 46.808ZM215.121 25.208L214.223 24.7692L214.218 24.7777L214.214 24.7863L215.121 25.208ZM219.729 20.312L219.235 19.4425L219.227 19.4475L219.729 20.312ZM232.905 19.304L232.571 20.2464L232.589 20.2528L232.607 20.2585L232.905 19.304ZM236.433 21.104L235.772 21.8538L235.782 21.8632L235.793 21.8722L236.433 21.104ZM237.441 24.272L236.547 23.8248L236.534 23.8511L236.522 23.8781L237.441 24.272ZM236.721 25.136L236.14 24.3223L236.11 24.3439L236.081 24.3678L236.721 25.136ZM234.201 24.848L233.528 25.5879L233.563 25.6197L233.601 25.648L234.201 24.848ZM220.737 25.352L220.02 24.6552L220.02 24.6555L220.737 25.352ZM220.737 46.736L220.01 47.422L220.02 47.4327L220.03 47.4431L220.737 46.736ZM232.185 48.536L232.579 49.4551L232.597 49.4474L232.615 49.4389L232.185 48.536ZM234.489 47.168L235.122 47.942L235.129 47.9362L234.489 47.168ZM237.153 46.808L236.513 47.5762L236.542 47.6001L236.572 47.6217L237.153 46.808ZM237.873 47.672L236.954 48.0659L236.977 48.1185L237.005 48.1681L237.873 47.672ZM236.865 50.84L237.505 51.6082L237.518 51.598L237.53 51.5874L236.865 50.84ZM233.193 52.712L232.877 51.7633L232.868 51.7663L233.193 52.712ZM227.649 52.504C224.602 52.504 222.173 51.9263 220.304 50.8395L219.299 52.5685C221.557 53.8817 224.361 54.504 227.649 54.504V52.504ZM220.304 50.8395C218.404 49.7349 217.009 48.2479 216.092 46.3692L214.295 47.2468C215.393 49.4961 217.07 51.2731 219.299 52.5685L220.304 50.8395ZM216.092 46.3692C215.159 44.4585 214.681 42.2836 214.681 39.824H212.681C212.681 42.5484 213.212 45.0295 214.295 47.2468L216.092 46.3692ZM214.681 39.824V32.192H212.681V39.824H214.681ZM214.681 32.192C214.681 29.7255 215.137 27.5444 216.028 25.6297L214.214 24.7863C213.185 26.9996 212.681 29.4745 212.681 32.192H214.681ZM216.02 25.6468C216.937 23.7681 218.332 22.2811 220.232 21.1765L219.227 19.4475C216.998 20.7429 215.321 22.5199 214.223 24.7692L216.02 25.6468ZM220.223 21.1815C222.146 20.0892 224.603 19.512 227.649 19.512V17.512C224.359 17.512 221.537 18.1348 219.235 19.4425L220.223 21.1815ZM227.649 19.512C229.581 19.512 231.215 19.7654 232.571 20.2464L233.24 18.3616C231.619 17.7866 229.749 17.512 227.649 17.512V19.512ZM232.607 20.2585C234.067 20.7149 235.099 21.2604 235.772 21.8538L237.095 20.3542C236.135 19.5076 234.815 18.8531 233.203 18.3495L232.607 20.2585ZM235.793 21.8722C236.578 22.5266 236.729 22.9677 236.729 23.192H238.729C238.729 22.0723 238.016 21.1214 237.073 20.3358L235.793 21.8722ZM236.729 23.192C236.729 23.3357 236.688 23.5422 236.547 23.8248L238.336 24.7192C238.578 24.2338 238.729 23.7203 238.729 23.192H236.729ZM236.522 23.8781C236.459 24.0249 236.347 24.1745 236.14 24.3223L237.302 25.9497C237.768 25.6175 238.135 25.1911 238.36 24.6659L236.522 23.8781ZM236.081 24.3678C235.977 24.4541 235.869 24.496 235.713 24.496V26.496C236.325 26.496 236.889 26.2979 237.361 25.9042L236.081 24.3678ZM235.713 24.496C235.6 24.496 235.309 24.4289 234.801 24.048L233.601 25.648C234.245 26.1311 234.963 26.496 235.713 26.496V24.496ZM234.874 24.1081C234.24 23.5323 233.394 23.0247 232.38 22.5681L231.559 24.3919C232.464 24.7993 233.106 25.2037 233.528 25.5879L234.874 24.1081ZM232.38 22.5681C231.231 22.0513 229.698 21.832 227.865 21.832V23.832C229.584 23.832 230.787 24.0447 231.559 24.3919L232.38 22.5681ZM227.865 21.832C224.568 21.832 221.896 22.7234 220.02 24.6552L221.454 26.0488C222.842 24.6206 224.922 23.832 227.865 23.832V21.832ZM220.02 24.6555C218.207 26.5234 217.361 29.0818 217.361 32.192H219.361C219.361 29.4462 220.1 27.4446 221.455 26.0485L220.02 24.6555ZM217.361 32.192V39.824H219.361V32.192H217.361ZM217.361 39.824C217.361 42.9358 218.207 45.5104 220.01 47.422L221.465 46.05C220.099 44.6016 219.361 42.5682 219.361 39.824H217.361ZM220.03 47.4431C221.911 49.3237 224.605 50.184 227.937 50.184V48.184C224.933 48.184 222.828 47.4123 221.444 46.0289L220.03 47.4431ZM227.937 50.184C229.818 50.184 231.391 49.9645 232.579 49.4551L231.791 47.6169C230.964 47.9715 229.704 48.184 227.937 48.184V50.184ZM232.615 49.4389C233.656 48.9432 234.505 48.4468 235.122 47.942L233.856 46.394C233.417 46.7532 232.73 47.1688 231.755 47.6331L232.615 49.4389ZM235.129 47.9362C235.621 47.5262 235.927 47.448 236.073 47.448V45.448C235.259 45.448 234.509 45.8498 233.849 46.3998L235.129 47.9362ZM236.073 47.448C236.309 47.448 236.432 47.5084 236.513 47.5762L237.793 46.0398C237.299 45.6276 236.701 45.448 236.073 45.448V47.448ZM236.572 47.6217C236.779 47.7695 236.891 47.9191 236.954 48.0659L238.792 47.2781C238.567 46.7529 238.2 46.3265 237.734 45.9943L236.572 47.6217ZM237.005 48.1681C237.111 48.3543 237.161 48.5434 237.161 48.752H239.161C239.161 48.1926 239.019 47.6617 238.741 47.1759L237.005 48.1681ZM237.161 48.752C237.161 48.9249 237.018 49.366 236.201 50.0926L237.53 51.5874C238.44 50.778 239.161 49.8271 239.161 48.752H237.161ZM236.225 50.0718C235.491 50.6831 234.395 51.2574 232.877 51.7633L233.509 53.6607C235.16 53.1106 236.511 52.4369 237.505 51.6082L236.225 50.0718ZM232.868 51.7663C231.465 52.2487 229.733 52.504 227.649 52.504V54.504C229.886 54.504 231.85 54.2313 233.518 53.6577L232.868 51.7663ZM244.073 52.424L243.409 53.1714L243.428 53.1887L243.448 53.2049L244.073 52.424ZM244.073 19.448L244.628 20.28L244.637 20.2737L244.647 20.2672L244.073 19.448ZM247.313 19.448L246.699 20.2374L246.728 20.2598L246.758 20.28L247.313 19.448ZM247.961 24.272H246.961L248.847 24.736L247.961 24.272ZM250.121 21.464L249.433 20.738L249.433 20.738L250.121 21.464ZM253.361 19.376L253.751 20.297L253.766 20.2907L253.78 20.284L253.361 19.376ZM261.425 19.16L260.636 19.7739L260.656 19.7998L260.678 19.8244L261.425 19.16ZM261.425 22.256L260.678 21.5916L260.672 21.5975L261.425 22.256ZM253.001 24.128L252.499 23.2632L252.493 23.2668L252.487 23.2705L253.001 24.128ZM249.473 27.728L250.333 28.2385L250.333 28.2385L249.473 27.728ZM247.385 52.424L246.76 51.6431L246.74 51.6593L246.721 51.6766L247.385 52.424ZM245.729 52C245.328 52 244.998 51.883 244.698 51.6431L243.448 53.2049C244.109 53.733 244.882 54 245.729 54V52ZM244.737 51.6766C244.471 51.4401 244.425 51.2644 244.425 51.128H242.425C242.425 51.9516 242.811 52.6399 243.409 53.1714L244.737 51.6766ZM244.425 51.128V20.744H242.425V51.128H244.425ZM244.425 20.744C244.425 20.4593 244.508 20.3599 244.628 20.28L243.518 18.6159C242.774 19.1121 242.425 19.8767 242.425 20.744H244.425ZM244.647 20.2672C244.947 20.0567 245.296 19.944 245.729 19.944V17.944C244.914 17.944 244.159 18.1673 243.5 18.6288L244.647 20.2672ZM245.729 19.944C246.163 19.944 246.467 20.0567 246.699 20.2374L247.927 18.6586C247.295 18.1673 246.543 17.944 245.729 17.944V19.944ZM246.758 20.28C246.878 20.3599 246.961 20.4593 246.961 20.744H248.961C248.961 19.8767 248.612 19.1121 247.868 18.6159L246.758 20.28ZM246.961 20.744V24.272H248.961V20.744H246.961ZM248.847 24.736C249.319 23.8353 249.969 22.986 250.809 22.19L249.433 20.738C248.45 21.67 247.659 22.6927 247.075 23.808L248.847 24.736ZM250.809 22.19C251.627 21.4145 252.604 20.782 253.751 20.297L252.971 18.455C251.622 19.026 250.439 19.7855 249.433 20.738L250.809 22.19ZM253.78 20.284C254.878 19.7772 256.148 19.512 257.609 19.512V17.512C255.902 17.512 254.34 17.8228 252.942 18.468L253.78 20.284ZM257.609 19.512H260.129V17.512H257.609V19.512ZM260.129 19.512C260.336 19.512 260.481 19.5752 260.636 19.7739L262.214 18.5461C261.697 17.8808 260.979 17.512 260.129 17.512V19.512ZM260.678 19.8244C260.9 20.074 261.001 20.3419 261.001 20.672H263.001C263.001 19.8501 262.719 19.11 262.172 18.4956L260.678 19.8244ZM261.001 20.672C261.001 21.0722 260.885 21.3579 260.678 21.5916L262.172 22.9204C262.733 22.2901 263.001 21.5198 263.001 20.672H261.001ZM260.672 21.5975C260.534 21.756 260.38 21.832 260.129 21.832V23.832C260.934 23.832 261.644 23.524 262.178 22.9145L260.672 21.5975ZM260.129 21.832H257.609V23.832H260.129V21.832ZM257.609 21.832C255.834 21.832 254.126 22.3185 252.499 23.2632L253.503 24.9928C254.852 24.2095 256.216 23.832 257.609 23.832V21.832ZM252.487 23.2705C250.895 24.2252 249.604 25.5483 248.613 27.2175L250.333 28.2385C251.166 26.8357 252.227 25.7588 253.516 24.9855L252.487 23.2705ZM248.613 27.2175C247.59 28.9406 247.105 30.9985 247.105 33.344H249.105C249.105 31.2735 249.532 29.5874 250.333 28.2385L248.613 27.2175ZM247.105 33.344V51.128H249.105V33.344H247.105ZM247.105 51.128C247.105 51.2222 247.076 51.391 246.76 51.6431L248.01 53.2049C248.655 52.689 249.105 51.9938 249.105 51.128H247.105ZM246.721 51.6766C246.501 51.8718 246.198 52 245.729 52V54C246.604 54 247.405 53.7442 248.049 53.1714L246.721 51.6766ZM266.183 8L265.476 8.70711L265.503 8.73426L265.532 8.75926L266.183 8ZM266.183 3.752L265.532 2.99274L265.518 3.00472L265.504 3.01719L266.183 3.752ZM270.719 3.752L270.04 4.4868L270.04 4.4868L270.719 3.752ZM270.719 8L271.397 8.7348L271.412 8.72124L271.426 8.70711L270.719 8ZM266.759 52.424L266.094 53.1714L266.114 53.1887L266.134 53.2049L266.759 52.424ZM266.759 19.448L267.313 20.28L267.323 20.2737L267.332 20.2672L266.759 19.448ZM270.071 19.448L269.457 20.2374L269.504 20.2744L269.556 20.3055L270.071 19.448ZM270.071 52.424L269.446 51.6431L269.426 51.6593L269.406 51.6766L270.071 52.424ZM268.487 7.864C267.868 7.864 267.329 7.66554 266.834 7.24074L265.532 8.75926C266.38 9.48646 267.378 9.864 268.487 9.864V7.864ZM266.89 7.29289C266.437 6.83957 266.247 6.36785 266.247 5.84H264.247C264.247 6.94415 264.681 7.91243 265.476 8.70711L266.89 7.29289ZM266.247 5.84C266.247 5.31568 266.433 4.8822 266.861 4.4868L265.504 3.01719C264.685 3.77379 264.247 4.73232 264.247 5.84H266.247ZM266.834 4.51125C267.329 4.08646 267.868 3.888 268.487 3.888V1.888C267.378 1.888 266.38 2.26554 265.532 2.99274L266.834 4.51125ZM268.487 3.888C269.104 3.888 269.605 4.08458 270.04 4.4868L271.397 3.0172C270.585 2.26742 269.597 1.888 268.487 1.888V3.888ZM270.04 4.4868C270.469 4.8822 270.655 5.31568 270.655 5.84H272.655C272.655 4.73232 272.217 3.77379 271.397 3.01719L270.04 4.4868ZM270.655 5.84C270.655 6.36785 270.465 6.83957 270.012 7.29289L271.426 8.70711C272.221 7.91243 272.655 6.94415 272.655 5.84H270.655ZM270.04 7.2652C269.605 7.66742 269.104 7.864 268.487 7.864V9.864C269.597 9.864 270.585 9.48458 271.397 8.7348L270.04 7.2652ZM268.415 52C268.014 52 267.683 51.883 267.383 51.6431L266.134 53.2049C266.794 53.733 267.567 54 268.415 54V52ZM267.423 51.6766C267.157 51.4401 267.111 51.2644 267.111 51.128H265.111C265.111 51.9516 265.496 52.6399 266.094 53.1714L267.423 51.6766ZM267.111 51.128V20.744H265.111V51.128H267.111ZM267.111 20.744C267.111 20.4593 267.194 20.3599 267.313 20.28L266.204 18.6159C265.46 19.1121 265.111 19.8767 265.111 20.744H267.111ZM267.332 20.2672C267.633 20.0567 267.982 19.944 268.415 19.944V17.944C267.6 17.944 266.845 18.1673 266.185 18.6288L267.332 20.2672ZM268.415 19.944C268.916 19.944 269.237 20.0667 269.457 20.2374L270.685 18.6586C270.04 18.1573 269.257 17.944 268.415 17.944V19.944ZM269.556 20.3055C269.724 20.4064 269.791 20.5068 269.791 20.744H271.791C271.791 19.8292 271.377 19.0656 270.585 18.5905L269.556 20.3055ZM269.791 20.744V51.128H271.791V20.744H269.791ZM269.791 51.128C269.791 51.2222 269.761 51.391 269.446 51.6431L270.695 53.2049C271.34 52.689 271.791 51.9938 271.791 51.128H269.791ZM269.406 51.6766C269.187 51.8718 268.884 52 268.415 52V54C269.289 54 270.091 53.7442 270.735 53.1714L269.406 51.6766ZM279.247 3.248L279.762 4.10549L279.773 4.09872L279.784 4.09166L279.247 3.248ZM282.487 3.248L281.914 4.06723L281.943 4.0874L281.973 4.10549L282.487 3.248ZM283.207 18.944H282.207V19.944H283.207V18.944ZM293.719 19.52L294.519 18.92L294.519 18.92L293.719 19.52ZM293.719 22.256L294.519 22.856L294.519 22.856L293.719 22.256ZM283.207 22.832V21.832H282.207V22.832H283.207ZM284.719 47.384L284.03 48.1081L284.039 48.117L284.048 48.1255L284.719 47.384ZM293.503 49.4L292.714 50.0139L292.752 50.0631L292.796 50.1071L293.503 49.4ZM293.503 52.352L292.756 51.6876L292.734 51.7122L292.714 51.7381L293.503 52.352ZM289.975 52C286.417 52 283.852 51.1903 282.129 49.7194L280.83 51.2406C283.043 53.1297 286.142 54 289.975 54V52ZM282.129 49.7194C280.466 48.2999 279.527 45.9489 279.527 42.416H277.527C277.527 46.2751 278.557 49.3001 280.83 51.2406L282.129 49.7194ZM279.527 42.416V4.544H277.527V42.416H279.527ZM279.527 4.544C279.527 4.30677 279.594 4.20643 279.762 4.10549L278.733 2.3905C277.941 2.86556 277.527 3.62922 277.527 4.544H279.527ZM279.784 4.09166C280.182 3.83858 280.526 3.744 280.831 3.744V1.744C280.08 1.744 279.369 1.98542 278.71 2.40433L279.784 4.09166ZM280.831 3.744C281.264 3.744 281.613 3.85672 281.914 4.06723L283.061 2.42876C282.401 1.96728 281.646 1.744 280.831 1.744V3.744ZM281.973 4.10549C282.141 4.20643 282.207 4.30677 282.207 4.544H284.207C284.207 3.62922 283.794 2.86556 283.002 2.3905L281.973 4.10549ZM282.207 4.544V18.944H284.207V4.544H282.207ZM283.207 19.944H292.567V17.944H283.207V19.944ZM292.567 19.944C292.733 19.944 292.82 19.9878 292.919 20.12L294.519 18.92C294.042 18.2842 293.362 17.944 292.567 17.944V19.944ZM292.919 20.12C293.064 20.3135 293.151 20.5535 293.151 20.888H295.151C295.151 20.1665 294.95 19.4945 294.519 18.92L292.919 20.12ZM293.151 20.888C293.151 21.2225 293.064 21.4625 292.919 21.656L294.519 22.856C294.95 22.2815 295.151 21.6095 295.151 20.888H293.151ZM292.919 21.656C292.82 21.7882 292.733 21.832 292.567 21.832V23.832C293.362 23.832 294.042 23.4918 294.519 22.856L292.919 21.656ZM292.567 21.832H283.207V23.832H292.567V21.832ZM282.207 22.832V42.416H284.207V22.832H282.207ZM282.207 42.416C282.207 44.863 282.723 46.8641 284.03 48.1081L285.409 46.6599C284.699 45.9839 284.207 44.673 284.207 42.416H282.207ZM284.048 48.1255C285.342 49.2962 287.416 49.752 289.975 49.752V47.752C287.542 47.752 286.112 47.2958 285.39 46.6425L284.048 48.1255ZM289.975 49.752H291.991V47.752H289.975V49.752ZM291.991 49.752C292.433 49.752 292.611 49.8811 292.714 50.0139L294.293 48.7861C293.724 48.0549 292.894 47.752 291.991 47.752V49.752ZM292.796 50.1071C292.98 50.2913 293.079 50.5114 293.079 50.84H295.079C295.079 50.0166 294.794 49.2767 294.21 48.6929L292.796 50.1071ZM293.079 50.84C293.079 51.1701 292.978 51.438 292.756 51.6876L294.251 53.0164C294.797 52.402 295.079 51.6619 295.079 50.84H293.079ZM292.714 51.7381C292.611 51.8709 292.433 52 291.991 52V54C292.894 54 293.724 53.6971 294.293 52.9659L292.714 51.7381ZM291.991 52H289.975V54H291.991V52ZM303.809 51.632L303.277 52.4789L303.284 52.4834L303.291 52.4877L303.809 51.632ZM298.769 46.592L297.908 47.1007L297.915 47.1123L297.922 47.1238L298.769 46.592ZM298.697 25.352L297.841 24.8346L297.838 24.8405L298.697 25.352ZM303.665 20.384L303.156 19.523L303.147 19.5283L303.665 20.384ZM317.345 20.384L316.827 21.2397L316.839 21.2468L316.851 21.2535L317.345 20.384ZM322.385 25.208L323.235 24.6816L323.235 24.6816L322.385 25.208ZM322.385 46.52L323.246 47.0287L323.246 47.0287L322.385 46.52ZM317.345 51.632L317.862 52.4878L317.868 52.4843L317.345 51.632ZM315.113 47.888L315.654 48.7292L315.664 48.7225L315.674 48.7155L315.113 47.888ZM318.353 44.36L317.483 43.867L317.483 43.867L318.353 44.36ZM318.353 27.584L317.477 28.0671L317.484 28.0785L317.49 28.0897L318.353 27.584ZM315.113 24.2L314.551 25.0275L314.568 25.0389L314.586 25.0496L315.113 24.2ZM306.041 24.2L306.582 25.0412L306.592 25.0345L306.602 25.0275L306.041 24.2ZM302.801 27.584L301.938 27.0783L301.938 27.0783L302.801 27.584ZM302.801 44.36L301.931 44.853L301.931 44.853L302.801 44.36ZM306.041 47.888L305.479 48.7155L305.496 48.7269L305.514 48.7376L306.041 47.888ZM310.577 52.504C308.308 52.504 306.232 51.9284 304.326 50.7763L303.291 52.4877C305.514 53.8316 307.949 54.504 310.577 54.504V52.504ZM304.341 50.7851C302.404 49.5691 300.832 47.9968 299.616 46.0602L297.922 47.1238C299.298 49.3152 301.086 51.1029 303.277 52.4789L304.341 50.7851ZM299.63 46.0833C298.471 44.1218 297.897 42.0409 297.897 39.824H295.897C295.897 42.4071 296.571 44.8382 297.908 47.1007L299.63 46.0833ZM297.897 39.824V32.048H295.897V39.824H297.897ZM297.897 32.048C297.897 29.7719 298.452 27.7179 299.556 25.8635L297.838 24.8405C296.541 27.0181 295.897 29.4281 295.897 32.048H297.897ZM299.553 25.8694C300.717 23.9439 302.257 22.404 304.182 21.2397L303.147 19.5283C300.945 20.86 299.173 22.6321 297.841 24.8346L299.553 25.8694ZM304.174 21.2449C306.129 20.0896 308.257 19.512 310.577 19.512V17.512C307.905 17.512 305.425 18.1824 303.156 19.5231L304.174 21.2449ZM310.577 19.512C312.845 19.512 314.922 20.0876 316.827 21.2397L317.862 19.5283C315.64 18.1844 313.204 17.512 310.577 17.512V19.512ZM316.851 21.2535C318.821 22.3728 320.377 23.8643 321.535 25.7344L323.235 24.6816C321.897 22.5197 320.093 20.7952 317.839 19.5145L316.851 21.2535ZM321.535 25.7344C322.678 27.5806 323.257 29.6758 323.257 32.048H325.257C325.257 29.3322 324.588 26.8674 323.235 24.6816L321.535 25.7344ZM323.257 32.048V39.824H325.257V32.048H323.257ZM323.257 39.824C323.257 41.9892 322.685 44.0464 321.524 46.0113L323.246 47.0287C324.581 44.7696 325.257 42.3628 325.257 39.824H323.257ZM321.524 46.0113C320.36 47.9814 318.796 49.5681 316.822 50.7797L317.868 52.4843C320.117 51.1039 321.914 49.2826 323.246 47.0287L321.524 46.0113ZM316.827 50.7763C314.922 51.9284 312.845 52.504 310.577 52.504V54.504C313.204 54.504 315.64 53.8316 317.862 52.4877L316.827 50.7763ZM310.577 50.184C312.438 50.184 314.14 49.7023 315.654 48.7292L314.572 47.0468C313.398 47.8017 312.076 48.184 310.577 48.184V50.184ZM315.674 48.7155C317.148 47.7155 318.333 46.4241 319.223 44.853L317.483 43.867C316.741 45.1759 315.766 46.2365 314.551 47.0605L315.674 48.7155ZM319.223 44.853C320.12 43.2697 320.577 41.5887 320.577 39.824H318.577C318.577 41.2273 318.218 42.5703 317.483 43.867L319.223 44.853ZM320.577 39.824V32.048H318.577V39.824H320.577ZM320.577 32.048C320.577 30.2828 320.12 28.6206 319.216 27.0783L317.49 28.0897C318.218 29.3314 318.577 30.6452 318.577 32.048H320.577ZM319.228 27.1009C318.375 25.5542 317.173 24.3018 315.64 23.3504L314.586 25.0496C315.837 25.8262 316.795 26.8298 317.477 28.0671L319.228 27.1009ZM315.674 23.3725C314.159 22.3441 312.45 21.832 310.577 21.832V23.832C312.064 23.832 313.379 24.2319 314.551 25.0275L315.674 23.3725ZM310.577 21.832C308.704 21.832 306.995 22.3441 305.479 23.3725L306.602 25.0275C307.775 24.2319 309.09 23.832 310.577 23.832V21.832ZM305.5 23.3588C304.023 24.3087 302.833 25.5521 301.938 27.0783L303.664 28.0897C304.401 26.8319 305.371 25.8193 306.582 25.0412L305.5 23.3588ZM301.938 27.0783C301.034 28.6206 300.577 30.2828 300.577 32.048H302.577C302.577 30.6452 302.936 29.3314 303.664 28.0897L301.938 27.0783ZM300.577 32.048V39.824H302.577V32.048H300.577ZM300.577 39.824C300.577 41.5887 301.034 43.2697 301.931 44.853L303.671 43.867C302.936 42.5703 302.577 41.2273 302.577 39.824H300.577ZM301.931 44.853C302.821 46.4241 304.006 47.7155 305.479 48.7155L306.602 47.0605C305.388 46.2365 304.413 45.1759 303.671 43.867L301.931 44.853ZM305.514 48.7376C307.063 49.6995 308.758 50.184 310.577 50.184V48.184C309.132 48.184 307.803 47.8045 306.568 47.0384L305.514 48.7376ZM334.175 52.64L333.851 53.586L333.859 53.5887L334.175 52.64ZM330.215 50.624L329.548 51.3692L329.569 51.3876L329.59 51.4049L330.215 50.624ZM329.063 47.384L329.957 47.8312L329.97 47.8049L329.982 47.7779L329.063 47.384ZM329.639 46.52L328.999 45.7518L328.964 45.7808L328.932 45.8129L329.639 46.52ZM332.231 47.024L331.553 47.7588L331.582 47.7858L331.613 47.8103L332.231 47.024ZM334.967 48.68L334.52 49.5744L334.527 49.578L334.534 49.5815L334.967 48.68ZM345.767 48.032L346.441 48.7705L346.45 48.7627L346.458 48.7546L345.767 48.032ZM346.127 40.76L345.382 41.4268L345.4 41.4475L345.42 41.4671L346.127 40.76ZM342.815 38.672L342.479 39.6138L342.489 39.6174L342.815 38.672ZM338.495 37.304L338.216 38.2644L338.224 38.2667L338.495 37.304ZM334.175 35.72L333.754 36.6271L333.766 36.6325L334.175 35.72ZM330.863 33.056L330.036 33.6183L330.049 33.6375L330.063 33.656L330.863 33.056ZM334.391 20.024L333.876 19.1664L333.865 19.1732L334.391 20.024ZM345.623 19.016L345.843 18.0406L345.843 18.0406L345.623 19.016ZM349.223 20.384L348.689 21.2295L348.715 21.2456L348.741 21.2602L349.223 20.384ZM350.375 23.048L349.461 22.6419L349.449 22.669L349.439 22.6969L350.375 23.048ZM347.135 23.984L346.661 24.8645L346.674 24.8717L346.688 24.8784L347.135 23.984ZM336.911 23.408L337.42 24.2689L337.42 24.2689L336.911 23.408ZM334.607 25.64L335.481 26.1256L335.481 26.1256L334.607 25.64ZM335.183 31.256L335.823 30.4878L335.823 30.4878L335.183 31.256ZM338.495 33.056L338.159 33.9977L338.178 34.0048L338.199 34.0111L338.495 33.056ZM342.815 34.352L342.536 35.3123L342.554 35.3176L342.572 35.3221L342.815 34.352ZM347.135 36.008L346.663 36.8895L346.669 36.8929L346.676 36.8962L347.135 36.008ZM350.447 39.032L349.601 39.5648L349.608 39.5758L349.615 39.5867L350.447 39.032ZM348.719 50.984L348.079 50.2158L348.079 50.2158L348.719 50.984ZM340.151 52.504C337.978 52.504 336.096 52.2263 334.491 51.6913L333.859 53.5887C335.71 54.2057 337.812 54.504 340.151 54.504V52.504ZM334.499 51.6941C332.884 51.1402 331.679 50.5149 330.84 49.8431L329.59 51.4049C330.67 52.2691 332.106 52.9878 333.851 53.5859L334.499 51.6941ZM330.882 49.8788C330.04 49.1259 329.847 48.6091 329.847 48.32H327.847C327.847 49.4709 328.566 50.4901 329.548 51.3692L330.882 49.8788ZM329.847 48.32C329.847 48.1323 329.886 47.9743 329.957 47.8312L328.168 46.9368C327.952 47.3697 327.847 47.8357 327.847 48.32H329.847ZM329.982 47.7779C330.08 47.5498 330.203 47.3704 330.346 47.2271L328.932 45.8129C328.595 46.1496 328.334 46.5462 328.144 46.9901L329.982 47.7779ZM330.279 47.2882C330.361 47.2199 330.42 47.1877 330.456 47.1731C330.488 47.1596 330.502 47.16 330.503 47.16V45.16C329.918 45.16 329.411 45.4079 328.999 45.7518L330.279 47.2882ZM330.503 47.16C330.665 47.16 331.007 47.2549 331.553 47.7588L332.909 46.2892C332.207 45.6411 331.397 45.16 330.503 45.16V47.16ZM331.613 47.8103C332.358 48.3953 333.334 48.9818 334.52 49.5744L335.414 47.7856C334.295 47.2262 333.448 46.7087 332.849 46.2377L331.613 47.8103ZM334.534 49.5815C335.928 50.2505 337.78 50.544 340.007 50.544V48.544C337.914 48.544 336.406 48.2615 335.4 47.7785L334.534 49.5815ZM340.007 50.544C342.807 50.544 345.051 50.0398 346.441 48.7705L345.093 47.2935C344.275 48.0402 342.679 48.544 340.007 48.544V50.544ZM346.458 48.7546C347.73 47.5383 348.423 46.0873 348.423 44.432H346.423C346.423 45.4647 346.012 46.4137 345.076 47.3094L346.458 48.7546ZM348.423 44.432C348.423 42.6648 347.937 41.1554 346.834 40.0529L345.42 41.4671C346.045 42.0926 346.423 43.0312 346.423 44.432H348.423ZM346.872 40.0932C345.921 39.0306 344.661 38.251 343.141 37.7266L342.489 39.6174C343.752 40.053 344.7 40.6654 345.382 41.4268L346.872 40.0932ZM343.151 37.7303C341.783 37.2417 340.321 36.7789 338.766 36.3413L338.224 38.2667C339.741 38.6931 341.159 39.1423 342.479 39.6137L343.151 37.7303ZM338.774 36.3437C337.33 35.9244 335.933 35.4123 334.584 34.8075L333.766 36.6325C335.201 37.2757 336.684 37.8196 338.216 38.2643L338.774 36.3437ZM334.596 34.813C333.397 34.2564 332.425 33.472 331.663 32.456L330.063 33.656C331.029 34.944 332.265 35.9356 333.754 36.627L334.596 34.813ZM331.69 32.4937C331.02 31.5091 330.639 30.1412 330.639 28.304H328.639C328.639 30.4028 329.074 32.2029 330.036 33.6183L331.69 32.4937ZM330.639 28.304C330.639 26.9416 330.978 25.5859 331.68 24.2266L329.902 23.3094C329.068 24.9261 328.639 26.5944 328.639 28.304H330.639ZM331.68 24.2266C332.353 22.9222 333.416 21.8016 334.916 20.8748L333.865 19.1732C332.102 20.2624 330.765 21.6378 329.902 23.3094L331.68 24.2266ZM334.905 20.8815C336.38 19.9966 338.392 19.512 341.015 19.512V17.512C338.166 17.512 335.762 18.0354 333.876 19.1665L334.905 20.8815ZM341.015 19.512C342.528 19.512 343.99 19.6724 345.403 19.9914L345.843 18.0406C344.28 17.6876 342.67 17.512 341.015 17.512V19.512ZM345.403 19.9914C346.822 20.3119 347.904 20.7339 348.689 21.2295L349.757 19.5385C348.718 18.8821 347.4 18.3921 345.843 18.0406L345.403 19.9914ZM348.741 21.2602C349.628 21.7482 349.663 22.0669 349.663 22.112H351.663C351.663 20.9091 350.738 20.0758 349.705 19.5078L348.741 21.2602ZM349.663 22.112C349.663 22.0626 349.671 22.0785 349.635 22.1959C349.603 22.301 349.547 22.4477 349.461 22.6419L351.289 23.4541C351.478 23.0289 351.663 22.5399 351.663 22.112H349.663ZM349.439 22.6969C349.344 22.9482 349.206 23.1626 349.02 23.3489L350.434 24.7631C350.824 24.3734 351.117 23.9158 351.311 23.3991L349.439 22.6969ZM349.02 23.3489C348.907 23.462 348.82 23.488 348.719 23.488V25.488C349.385 25.488 349.971 25.226 350.434 24.7631L349.02 23.3489ZM348.719 23.488C348.578 23.488 348.224 23.4103 347.582 23.0896L346.688 24.8784C347.39 25.2297 348.092 25.488 348.719 25.488V23.488ZM347.609 23.1035C346.916 22.7305 346.042 22.3735 345.003 22.0273L344.371 23.9247C345.348 24.2505 346.106 24.5655 346.661 24.8645L347.609 23.1035ZM345.003 22.0273C343.867 21.6486 342.555 21.472 341.087 21.472V23.472C342.403 23.472 343.491 23.6313 344.371 23.9247L345.003 22.0273ZM341.087 21.472C339.249 21.472 337.663 21.8022 336.402 22.5471L337.42 24.2689C338.271 23.7658 339.468 23.472 341.087 23.472V21.472ZM336.402 22.5471C335.23 23.2399 334.318 24.1017 333.733 25.1544L335.481 26.1256C335.856 25.4503 336.48 24.8241 337.42 24.2689L336.402 22.5471ZM333.733 25.1544C333.188 26.1357 332.887 27.1416 332.887 28.16H334.887C334.887 27.5464 335.066 26.8723 335.481 26.1256L333.733 25.1544ZM332.887 28.16C332.887 29.7368 333.406 31.0768 334.543 32.0242L335.823 30.4878C335.232 29.9952 334.887 29.2712 334.887 28.16H332.887ZM334.543 32.0242C335.518 32.8366 336.732 33.4884 338.159 33.9977L338.831 32.1143C337.57 31.6636 336.576 31.1154 335.823 30.4878L334.543 32.0242ZM338.199 34.0111C339.597 34.445 341.043 34.8787 342.536 35.3123L343.094 33.3917C341.611 32.9613 340.177 32.531 338.791 32.1009L338.199 34.0111ZM342.572 35.3221C344.032 35.6869 345.394 36.2099 346.663 36.8895L347.607 35.1265C346.188 34.3661 344.67 33.7851 343.057 33.3819L342.572 35.3221ZM346.676 36.8962C347.913 37.5363 348.882 38.4233 349.601 39.5648L351.293 38.4992C350.38 37.0487 349.141 35.9197 347.594 35.1198L346.676 36.8962ZM349.615 39.5867C350.335 40.6662 350.743 42.1796 350.743 44.216H352.743C352.743 41.9324 352.287 39.9898 351.279 38.4773L349.615 39.5867ZM350.743 44.216C350.743 46.778 349.847 48.7423 348.079 50.2158L349.359 51.7522C351.623 49.8657 352.743 47.318 352.743 44.216H350.743ZM348.079 50.2158C346.304 51.6951 343.707 52.504 340.151 52.504V54.504C343.987 54.504 347.102 53.6329 349.359 51.7522L348.079 50.2158Z" fill="#AA9D9D"/>
</g>
<defs>
<filter id="filter0_d_202_2" x="0.229309" y="0.36792" width="360.514" height="62.136" filterUnits="userSpaceOnUse" color-interpolation-filters="sRGB">
<feFlood flood-opacity="0" result="BackgroundImageFix"/>
<feColorMatrix in="SourceAlpha" type="matrix" values="0 0 0 0 0 0 0 0 0 0 0 0 0 0 0 0 0 0 127 0" result="hardAlpha"/>
<feOffset dx="5" dy="5"/>
<feGaussianBlur stdDeviation="2"/>
<feComposite in2="hardAlpha" operator="out"/>
<feColorMatrix type="matrix" values="0 0 0 0 0.554167 0 0 0 0 0.531076 0 0 0 0 0.531076 0 0 0 0.42 0"/>
<feBlend mode="normal" in2="BackgroundImageFix" result="effect1_dropShadow_202_2"/>
<feBlend mode="normal" in="SourceGraphic" in2="effect1_dropShadow_202_2" result="shape"/>
</filter>
</defs>
</svg>
